<?xml version="1.0" encoding="utf-8"?>
<!-- Generator: Adobe Illustrator 16.0.3, SVG Export Plug-In . SVG Version: 6.00 Build 0)  -->
<!DOCTYPE svg PUBLIC "-//W3C//DTD SVG 1.1//EN" "http://www.w3.org/Graphics/SVG/1.1/DTD/svg11.dtd">
<svg version="1.1" id="Layer_1" xmlns="http://www.w3.org/2000/svg" xmlns:xlink="http://www.w3.org/1999/xlink" x="0px" y="0px"
	 width="71px" height="41px" viewBox="0 0 71 41" enable-background="new 0 0 71 41" xml:space="preserve">
<g>
	<g id="XMLID_1_">
		<g>
			<path fill="transparent" d="M50.5,1C61.25,1,70,9.75,70,20.5S61.25,40,50.5,40h-30C9.75,40,1,31.25,1,20.5S9.75,1,20.5,1H50.5z"/>
			<path fill="#5F80C0" d="M70,20.5C70,9.75,61.25,1,50.5,1h-30C9.75,1,1,9.75,1,20.5S9.75,40,20.5,40h30C61.25,40,70,31.25,70,20.5
				z M50.5,0C61.8,0,71,9.2,71,20.5S61.8,41,50.5,41h-30C9.2,41,0,31.8,0,20.5S9.2,0,20.5,0H50.5z"/>
		</g>
		<g>
		</g>
	</g>
</g>
<path fill="#6081C4" d="M40.852,8.847C41.92,8.809,44.5,8.838,44.5,8.838V3.283c-0.571-0.06-1.169-0.141-1.766-0.169
	c-1.096-0.047-2.191-0.104-3.289-0.08c-1.674,0.038-3.258,0.445-4.64,1.437c-1.588,1.141-2.459,2.745-2.79,4.637
	c-0.138,0.783-0.174,1.589-0.194,2.383c-0.031,1.25-0.005,4.211-0.005,4.211H26.5v6.201h5.286V37.5h6.458V21.929h5.268
	c0.268-2.063,0.533-4.106,0.811-6.235c-0.424,0-6.121,0-6.121,0s0.014-3.072,0.052-4.409C38.303,9.456,39.389,8.899,40.852,8.847"/>
</svg>
