<?xml version="1.0" encoding="utf-8"?>
<!-- Generator: Adobe Illustrator 16.0.3, SVG Export Plug-In . SVG Version: 6.00 Build 0)  -->
<!DOCTYPE svg PUBLIC "-//W3C//DTD SVG 1.1//EN" "http://www.w3.org/Graphics/SVG/1.1/DTD/svg11.dtd">
<svg version="1.1" id="Layer_1" xmlns="http://www.w3.org/2000/svg" xmlns:xlink="http://www.w3.org/1999/xlink" x="0px" y="0px"
	 width="34.38px" height="34.38px" viewBox="0 0 34.38 34.38" enable-background="new 0 0 34.38 34.38" xml:space="preserve">
<g>
	<linearGradient id="SVGID_1_" gradientUnits="userSpaceOnUse" x1="2.8848" y1="31.5137" x2="28.9688" y2="5.4307">
		<stop  offset="0" style="stop-color:#F9BF57"/>
		<stop  offset="0.5" style="stop-color:#E92246"/>
		<stop  offset="1" style="stop-color:#5654A3"/>
	</linearGradient>
	<path fill="url(#SVGID_1_)" d="M24.889,0.024H9.486C4.254,0.024,0,4.279,0,9.511v15.403C0,30.146,4.254,34.4,9.486,34.4h15.402
		c5.23,0,9.486-4.257,9.486-9.486V9.511C34.375,4.279,30.119,0.024,24.889,0.024L24.889,0.024z M31.324,24.914
		c0,3.549-2.887,6.437-6.436,6.437H9.486c-3.55,0-6.438-2.888-6.438-6.437V9.511c0-3.549,2.888-6.437,6.438-6.437h15.402
		c3.549,0,6.436,2.888,6.436,6.437V24.914z M31.324,24.914"/>
	<linearGradient id="SVGID_2_" gradientUnits="userSpaceOnUse" x1="2.8843" y1="31.5137" x2="28.9689" y2="5.43">
		<stop  offset="0" style="stop-color:#F9BF57"/>
		<stop  offset="0.5" style="stop-color:#E92246"/>
		<stop  offset="1" style="stop-color:#5654A3"/>
	</linearGradient>
	<path fill="url(#SVGID_2_)" d="M17.188,8.355c-4.885,0-8.858,3.973-8.858,8.857c0,4.884,3.974,8.857,8.858,8.857
		c4.883,0,8.857-3.974,8.857-8.857C26.045,12.328,22.07,8.355,17.188,8.355L17.188,8.355z M17.188,23.02
		c-3.203,0-5.809-2.604-5.809-5.807s2.605-5.809,5.809-5.809s5.808,2.606,5.808,5.809S20.389,23.02,17.188,23.02L17.188,23.02z
		 M17.188,23.02"/>
	<linearGradient id="SVGID_3_" gradientUnits="userSpaceOnUse" x1="2.8955" y1="31.5244" x2="28.9795" y2="5.4414">
		<stop  offset="0" style="stop-color:#F9BF57"/>
		<stop  offset="0.5" style="stop-color:#E92246"/>
		<stop  offset="1" style="stop-color:#5654A3"/>
	</linearGradient>
	<path fill="url(#SVGID_3_)" d="M26.416,5.769c-0.587,0-1.164,0.237-1.579,0.654c-0.418,0.415-0.657,0.993-0.657,1.583
		c0,0.588,0.24,1.165,0.657,1.581c0.414,0.416,0.992,0.654,1.579,0.654c0.59,0,1.165-0.238,1.582-0.654s0.655-0.994,0.655-1.581
		c0-0.59-0.238-1.168-0.655-1.583C27.583,6.006,27.006,5.769,26.416,5.769L26.416,5.769z M26.416,5.769"/>
</g>
</svg>
