<?xml version="1.0" encoding="utf-8"?>
<!-- Generator: Adobe Illustrator 19.0.0, SVG Export Plug-In . SVG Version: 6.00 Build 0)  -->
<svg version="1.1" id="кароточка" xmlns="http://www.w3.org/2000/svg" xmlns:xlink="http://www.w3.org/1999/xlink" x="0px"
	 y="0px" viewBox="-277 405.9 41 31" style="enable-background:new -277 405.9 41 31;" xml:space="preserve">
<style type="text/css">
	.st0{fill:#E2E2E2;}
</style>
<path class="st0" d="M-238.5,436.9h-36c-1.4,0-2.5-1.1-2.5-2.5v-26c0-1.4,1.1-2.5,2.5-2.5h36c1.4,0,2.5,1.1,2.5,2.5v26
	C-236,435.8-237.1,436.9-238.5,436.9z M-274.5,406.9c-0.8,0-1.5,0.7-1.5,1.5v26c0,0.8,0.7,1.5,1.5,1.5h36c0.8,0,1.5-0.7,1.5-1.5v-26
	c0-0.8-0.7-1.5-1.5-1.5H-274.5z"/>
<path id="Rectangle_5_copy_12" class="st0" d="M-274.5,406.4h36c1.1,0,2,0.9,2,2v18l0,0h-40l0,0v-18
	C-276.5,407.3-275.6,406.4-274.5,406.4z"/>
</svg>
