<?xml version="1.0" encoding="utf-8"?>
<!-- Generator: Adobe Illustrator 21.0.2, SVG Export Plug-In . SVG Version: 6.00 Build 0)  -->
<svg version="1.1" id="Layer_1" xmlns="http://www.w3.org/2000/svg" xmlns:xlink="http://www.w3.org/1999/xlink" x="0px" y="0px"
	 viewBox="0 0 64 64" enable-background="new 0 0 64 64" xml:space="preserve">
<g transform="matrix( 0.9946136474609375, 0, 0, 0.9946136474609375, 0.5,0.05) ">
	<g>
		<g id="Layer0_0_FILL">
			<path d="M60.347,35.798c0-7.866-2.783-14.566-8.35-20.099c-4.666-4.7-10.149-7.416-16.449-8.15c0.667-0.833,1-1.8,1-2.9
				c0-1.3-0.467-2.4-1.4-3.3c-0.9-0.933-2.017-1.4-3.35-1.4c-1.3,0-2.4,0.467-3.3,1.4c-0.933,0.9-1.4,2-1.4,3.3
				c0,1.1,0.35,2.083,1.05,2.95c-6.3,0.733-11.783,3.433-16.449,8.1c-5.566,5.533-8.35,12.233-8.35,20.099
				c0,7.9,2.783,14.616,8.35,20.149c5.566,5.566,12.283,8.35,20.149,8.35s14.583-2.783,20.149-8.35
				C57.564,50.414,60.347,43.697,60.347,35.798 M50.597,17.099c5.133,5.166,7.7,11.399,7.7,18.699c0,7.333-2.567,13.583-7.7,18.749
				c-5.166,5.166-11.416,7.75-18.749,7.75c-7.333,0-13.566-2.583-18.699-7.75C7.983,49.38,5.4,43.131,5.4,35.798
				c0-7.3,2.583-13.533,7.75-18.699c5.1-5.133,11.283-7.716,18.549-7.75h0.25C39.215,9.349,45.431,11.932,50.597,17.099
				 M33.748,2.75c0.5,0.5,0.75,1.133,0.75,1.9s-0.25,1.4-0.75,1.9c-0.467,0.5-1.083,0.767-1.85,0.8c-0.033,0-0.067,0-0.1,0h-0.1
				c-0.7-0.033-1.3-0.3-1.8-0.8s-0.75-1.133-0.75-1.9s0.25-1.4,0.75-1.9c0.533-0.5,1.167-0.75,1.9-0.75
				C32.598,2,33.248,2.25,33.748,2.75 M48.548,19.649l-0.55-0.55L28.199,32.198L14.999,52.047l0.65,0.55l19.849-13.049
				L48.548,19.649 M29.099,34.548l4.1,4.05l-12.149,8L29.099,34.548 M34.598,37.198l-4.05-4.05l11.999-8.05L34.598,37.198
				 M32.848,56.847h-2v4.25h2V56.847 M6.6,34.798v2.05h4.3v-2.05H6.6 M32.848,10.599h-2v4.25h2V10.599 M52.797,34.798v2.05h4.35
				v-2.05H52.797z"/>
		</g>
	</g>
</g>
</svg>
