<?xml version="1.0" encoding="utf-8"?>
<!-- Generator: Adobe Illustrator 21.0.2, SVG Export Plug-In . SVG Version: 6.00 Build 0)  -->
<svg version="1.1" id="Layer_1" xmlns="http://www.w3.org/2000/svg" xmlns:xlink="http://www.w3.org/1999/xlink" x="0px" y="0px"
	 viewBox="0 0 95 95" enable-background="new 0 0 95 95" xml:space="preserve">
<g transform="matrix( 1, 0, 0, 1, 0,0) ">
	<g>
		<g id="Layer0_0_1_STROKES">
			<path fill="#F6CB02" d="M50.65,95H44.6V81.545c-6.87-0.476-13.034-2.92-18.335-7.272c-0.979-0.776-1.951-1.644-2.873-2.565
				c-1.275-1.275-2.44-2.641-3.475-4.068L8.364,74.621l-3.142-5.162l11.517-6.89c-2.183-4.512-3.289-9.56-3.289-15.02
				c0-5.528,1.138-10.599,3.384-15.087L5.397,25.389l3-5.174l11.591,7.056c1-1.319,2.14-2.635,3.396-3.92
				c5.998-5.899,13.127-9.187,21.215-9.791V0.1h6.05v13.466c8.148,0.663,15.213,3.95,21.009,9.778
				c1.263,1.291,2.403,2.608,3.403,3.927l11.45-6.93l3.29,5.085l-11.631,6.948c2.275,4.548,3.428,9.648,3.428,15.175
				c0,5.491-1.105,10.54-3.287,15.022l11.475,6.894l-3.212,5.152l-11.404-6.934c-0.992,1.33-2.171,2.68-3.514,4.022
				c-0.92,0.921-1.87,1.783-2.822,2.565c-5.24,4.258-11.354,6.696-18.185,7.26V95z M46.6,93h2.05V79.655l0.943-0.054
				c6.784-0.386,12.832-2.699,17.976-6.878c0.898-0.737,1.8-1.557,2.674-2.431c1.517-1.517,2.808-3.036,3.836-4.515l0.537-0.771
				l11.309,6.875l1.089-1.748l-11.338-6.813l0.439-0.836c2.312-4.399,3.484-9.424,3.484-14.936c0-5.539-1.222-10.611-3.63-15.075
				l-0.455-0.843l11.483-6.859l-1.11-1.715l-11.361,6.876l-0.539-0.751c-1.066-1.486-2.328-2.978-3.752-4.434
				c-5.654-5.686-12.601-8.8-20.641-9.25l-0.944-0.053V2.1H46.6v13.353l-0.952,0.046c-7.975,0.386-14.989,3.502-20.847,9.264
				c-1.409,1.441-2.672,2.934-3.739,4.42l-0.541,0.753L9.103,22.985l-1,1.725l11.375,7.035l-0.448,0.83
				c-2.375,4.397-3.58,9.435-3.58,14.975c0,5.478,1.173,10.503,3.486,14.938l0.436,0.837L7.978,70.141l1.058,1.738l11.458-6.925
				l0.533,0.783c1.092,1.607,2.364,3.14,3.78,4.556c0.868,0.868,1.781,1.684,2.714,2.424c5.216,4.282,11.309,6.595,18.122,6.884
				l0.958,0.041V93z M47.65,76.65H47.5c-4.082,0-7.931-0.75-11.438-2.229c-3.307-1.412-6.375-3.537-9.123-6.318
				c-1.738-1.67-3.239-3.539-4.445-5.537c-2.649-4.37-3.994-9.423-3.994-15.017c0-5.593,1.378-10.697,4.096-15.169l0.519-0.853
				l0.031,0.019c1.137-1.668,2.414-3.199,3.805-4.561C32.508,21.359,39.426,18.5,47.5,18.5h0.15c7.907,0,14.772,2.857,20.407,8.493
				c1.607,1.572,3.055,3.385,4.293,5.379c2.853,4.501,4.301,9.61,4.301,15.177c0,5.527-1.379,10.582-4.098,15.022
				c-1.206,1.964-2.723,3.83-4.51,5.549c-2.765,2.766-5.849,4.889-9.15,6.299C55.452,75.899,51.669,76.65,47.65,76.65z
				 M24.74,62.377c1.015,1.533,2.224,2.977,3.603,4.303c2.583,2.613,5.437,4.593,8.5,5.9c3.013,1.271,6.31,1.963,9.807,2.059V60.375
				c-3.17-0.19-5.929-1.457-8.212-3.772c-0.53-0.53-1.009-1.085-1.431-1.656L24.74,62.377z M48.649,60.354v14.279
				c3.373-0.113,6.549-0.803,9.455-2.053c3.069-1.31,5.94-3.29,8.538-5.888c1.416-1.362,2.642-2.81,3.661-4.321l-12.298-7.467
				c-0.426,0.594-0.91,1.163-1.449,1.702C54.351,58.846,51.693,60.105,48.649,60.354z M59.036,53.19l12.314,7.478
				c2.19-3.911,3.3-8.319,3.3-13.118c0-4.839-1.172-9.3-3.486-13.277l-12.258,7.425c0.925,1.766,1.394,3.73,1.394,5.852
				C60.3,49.599,59.875,51.491,59.036,53.19z M23.803,34.283C21.61,38.229,20.5,42.687,20.5,47.55c0,4.855,1.078,9.263,3.205,13.116
				l12.254-7.423c-0.869-1.729-1.309-3.639-1.309-5.693c0-2.121,0.468-4.085,1.394-5.852L23.803,34.283z M38.15,53.073
				c0.457,0.73,1.031,1.444,1.707,2.12c2.129,2.159,4.628,3.207,7.643,3.207h0.144c2.951-0.032,5.402-1.08,7.494-3.202
				c0.663-0.663,1.225-1.371,1.674-2.111l0.031-0.051c0,0,0,0,0-0.001l0.001-0.002c0.966-1.601,1.456-3.445,1.456-5.483
				c0-1.949-0.463-3.732-1.378-5.308l-0.227-0.372c-0.424-0.696-0.946-1.356-1.553-1.962c-2.097-2.128-4.548-3.176-7.499-3.208H47.5
				c-3.016,0-5.514,1.047-7.638,3.202c-0.656,0.625-1.189,1.28-1.608,1.968l-0.224,0.368c-0.916,1.577-1.38,3.362-1.38,5.312
				C36.65,49.584,37.155,51.441,38.15,53.073z M24.858,32.584l12.246,7.418c0.397-0.534,0.851-1.045,1.355-1.526
				c2.262-2.295,5.02-3.561,8.19-3.75V20.511c-7.156,0.194-13.305,2.847-18.289,7.892C27.079,29.658,25.907,31.059,24.858,32.584z
				 M48.649,34.746c3.043,0.249,5.701,1.508,7.912,3.753c0.472,0.471,0.903,0.974,1.288,1.501l12.252-7.421
				c-1.027-1.528-2.184-2.923-3.451-4.163c-5.015-5.015-11.063-7.667-18.001-7.898V34.746z"/>
		</g>
	</g>
</g>
</svg>
