<?xml version="1.0" encoding="utf-8"?>
<!-- Generator: Adobe Illustrator 21.0.2, SVG Export Plug-In . SVG Version: 6.00 Build 0)  -->
<svg version="1.1" id="Layer_1" xmlns="http://www.w3.org/2000/svg" xmlns:xlink="http://www.w3.org/1999/xlink" x="0px" y="0px"
	 viewBox="0 0 64 64" enable-background="new 0 0 64 64" xml:space="preserve">
<g>
	<g>
		<defs>
			<rect id="SVGID_1_" x="4.337" width="55.54" height="63.995"/>
		</defs>
		<clipPath id="SVGID_2_">
			<use xlink:href="#SVGID_1_"  overflow="visible"/>
		</clipPath>
		<path clip-path="url(#SVGID_2_)" d="M55.109,19.636l-13.511-4.503c-0.66-1.256-1.977-2.115-3.492-2.115h-3.069
			c0.001-0.021,0.003-0.041,0.003-0.062c0-1.294-0.84-2.395-2.003-2.787v-9.23C33.037,0.421,32.616,0,32.098,0
			c-0.518,0-0.939,0.421-0.939,0.939v9.23c-1.163,0.392-2.003,1.493-2.003,2.787c0,0.021,0.002,0.041,0.003,0.062h-3.07
			c-1.514,0-2.832,0.859-3.492,2.115L9.087,19.636c-2.943,0.982-4.893,3.831-4.742,6.929L5.94,59.26
			c0.128,2.638,2.298,4.704,4.939,4.704h42.44c2.641,0,4.81-2.066,4.938-4.704l1.595-32.695
			C60.003,23.467,58.053,20.618,55.109,19.636L55.109,19.636z M31.034,12.956c0-0.587,0.477-1.064,1.064-1.064
			c0.587,0,1.064,0.477,1.064,1.064c0,0.021,0.002,0.041,0.003,0.062h-2.134C31.032,12.997,31.034,12.977,31.034,12.956
			L31.034,12.956z M26.09,14.896h12.016c1.139,0,2.066,0.927,2.066,2.065v6.71c0,0.42-0.248,0.802-0.632,0.972l-7.442,3.307
			l-7.442-3.307c-0.384-0.171-0.632-0.552-0.632-0.972v-6.71C24.024,15.822,24.951,14.896,26.09,14.896L26.09,14.896z M46.18,62.087
			H18.016v-8.074c0-1.69,1.376-3.066,3.067-3.066h22.03c1.691,0,3.067,1.376,3.067,3.066V62.087z M57.976,26.474l-1.595,32.695
			c-0.08,1.636-1.425,2.917-3.063,2.917h-5.26v-8.074c0-2.726-2.218-4.944-4.945-4.944h-22.03c-2.726,0-4.945,2.218-4.945,4.944
			v8.074h-5.26c-1.638,0-2.983-1.282-3.063-2.917L6.22,26.474c-0.111-2.261,1.312-4.341,3.46-5.056l12.466-4.156v6.408
			c0,1.161,0.686,2.216,1.747,2.688l7.823,3.477c0.122,0.054,0.251,0.081,0.381,0.081c0.13,0,0.26-0.027,0.381-0.081l7.823-3.477
			c1.061-0.472,1.747-1.527,1.747-2.688v-6.408l12.466,4.156C56.664,22.134,58.087,24.213,57.976,26.474L57.976,26.474z
			 M57.976,26.474"/>
	</g>
	<path d="M17.077,26.036c-4.383,0-7.949,3.566-7.949,7.949c0,4.383,3.566,7.949,7.949,7.949s7.949-3.566,7.949-7.949
		C25.026,29.602,21.46,26.036,17.077,26.036L17.077,26.036z M17.077,40.056c-3.348,0-6.071-2.723-6.071-6.071
		c0-3.347,2.723-6.071,6.071-6.071c3.347,0,6.071,2.724,6.071,6.071C23.148,37.332,20.425,40.056,17.077,40.056L17.077,40.056z
		 M17.077,40.056"/>
	<path d="M47.119,26.036c-4.383,0-7.949,3.566-7.949,7.949c0,4.383,3.566,7.949,7.949,7.949c4.383,0,7.949-3.566,7.949-7.949
		C55.068,29.602,51.502,26.036,47.119,26.036L47.119,26.036z M47.119,40.056c-3.348,0-6.071-2.723-6.071-6.071
		c0-3.347,2.723-6.071,6.071-6.071c3.347,0,6.071,2.724,6.071,6.071C53.19,37.332,50.467,40.056,47.119,40.056L47.119,40.056z
		 M47.119,40.056"/>
	<path d="M20.081,33.046c-0.518,0-0.939,0.421-0.939,0.939c0,1.139-0.927,2.065-2.065,2.065c-1.139,0-2.065-0.926-2.065-2.065
		c0-1.139,0.926-2.065,2.065-2.065c0.518,0,0.939-0.42,0.939-0.939c0-0.518-0.421-0.939-0.939-0.939
		c-2.174,0-3.943,1.769-3.943,3.943c0,2.174,1.769,3.943,3.943,3.943c2.174,0,3.943-1.769,3.943-3.943
		C21.02,33.467,20.6,33.046,20.081,33.046L20.081,33.046z M20.081,33.046"/>
	<path d="M50.123,33.046c-0.518,0-0.939,0.421-0.939,0.939c0,1.139-0.927,2.065-2.065,2.065c-1.139,0-2.065-0.926-2.065-2.065
		c0-1.139,0.926-2.065,2.065-2.065c0.518,0,0.939-0.42,0.939-0.939c0-0.518-0.421-0.939-0.939-0.939
		c-2.174,0-3.943,1.769-3.943,3.943c0,2.174,1.769,3.943,3.943,3.943c2.174,0,3.943-1.769,3.943-3.943
		C51.062,33.467,50.642,33.046,50.123,33.046L50.123,33.046z M50.123,33.046"/>
	<path d="M32.098,31.043c-1.622,0-2.942,1.32-2.942,2.942c0,1.622,1.32,2.942,2.942,2.942c1.622,0,2.942-1.32,2.942-2.942
		C35.04,32.363,33.72,31.043,32.098,31.043L32.098,31.043z M32.098,35.049c-0.587,0-1.064-0.477-1.064-1.064
		c0-0.587,0.477-1.064,1.064-1.064c0.587,0,1.064,0.477,1.064,1.064C33.162,34.571,32.685,35.049,32.098,35.049L32.098,35.049z
		 M32.098,35.049"/>
	<path d="M32.098,38.053c-1.622,0-2.942,1.32-2.942,2.942v4.006c0,1.621,1.32,2.941,2.942,2.941c1.622,0,2.942-1.319,2.942-2.941
		v-4.006C35.04,39.373,33.72,38.053,32.098,38.053L32.098,38.053z M32.098,39.931c0.587,0,1.064,0.477,1.064,1.064v1.064h-2.128
		v-1.064C31.034,40.408,31.511,39.931,32.098,39.931L32.098,39.931z M32.098,46.064c-0.587,0-1.064-0.477-1.064-1.063v-1.064h2.128
		v1.064C33.162,45.587,32.685,46.064,32.098,46.064L32.098,46.064z M32.098,46.064"/>
	<path d="M39.108,52.073h-14.02c-0.518,0-0.939,0.42-0.939,0.939v7.01c0,0.518,0.42,0.939,0.939,0.939h14.02
		c0.518,0,0.939-0.421,0.939-0.939v-7.01C40.047,52.493,39.626,52.073,39.108,52.073L39.108,52.073z M38.169,59.083H26.027V53.95
		h12.142V59.083z M38.169,59.083"/>
</g>
</svg>
