<?xml version="1.0" encoding="utf-8"?>
<!-- Generator: Adobe Illustrator 16.0.3, SVG Export Plug-In . SVG Version: 6.00 Build 0)  -->
<!DOCTYPE svg PUBLIC "-//W3C//DTD SVG 1.1//EN" "http://www.w3.org/Graphics/SVG/1.1/DTD/svg11.dtd">
<svg version="1.1" id="Layer_1" xmlns="http://www.w3.org/2000/svg" xmlns:xlink="http://www.w3.org/1999/xlink" x="0px" y="0px"
	 width="400px" height="238px" viewBox="0 0 400 238" enable-background="new 0 0 400 238" xml:space="preserve">
<g>
	<polygon fill-rule="evenodd" clip-rule="evenodd" points="326.635,195.637 382.354,8.158 372.743,13.431 341.102,119.838 
		283.341,119.838 263.085,188.048 199.803,188.048 194.924,195.637 	"/>
	<path fill-rule="evenodd" clip-rule="evenodd" fill="#F4CB06" d="M341.103,119.838l31.641-106.406l-9.66,5.225
		c-14.753,8.708-29.258,18.793-43.519,30.26c-6.834,5.519-13.602,11.369-20.306,17.545c-32.987,30.261-64.513,68.275-94.576,114.045
		l-4.879,7.541h0.296h62.986l2.218-7.541h43.962c4.191,0,7.59-3.399,7.59-7.591s-3.398-7.589-7.59-7.589h-39.428l13.504-45.489
		H341.103z"/>
	<path fill-rule="evenodd" clip-rule="evenodd" fill="#FFFFFF" d="M382.354,8.158l-37.703,126.857h-50.665l-4.533,15.132h20.748
		c0.034,0.001,0.066,0.012,0.101,0.019c12.226,0.379,22.024,10.403,22.024,22.723c0,12.367-9.876,22.422-22.171,22.727
		c-0.001,0.009-0.002,0.021-0.004,0.021H194.924c-3.121,4.995-6.226,10.055-9.316,15.18h115.476
		c1.609,0.033,3.153,0.215,4.632,0.542c4.075,0.921,7.689,2.958,10.843,6.111c4.469,4.437,6.703,9.792,6.703,16.067
		c0,1.38-0.115,2.711-0.346,3.991c0,0.133-0.017,0.263-0.049,0.396h6.309L399.899,0.076C393.985,2.572,388.137,5.267,382.354,8.158"
		/>
	<polygon fill-rule="evenodd" clip-rule="evenodd" fill="#FFFFFF" points="33.467,134.071 29.377,147.428 55.053,147.428 
		50.717,161.622 25.089,161.622 17.056,188.038 0.101,188.038 20.9,119.877 66.587,119.877 62.299,134.071 	"/>
	<polygon fill-rule="evenodd" clip-rule="evenodd" fill="#FFFFFF" points="99.607,173.943 95.369,188.038 50.076,188.038 
		70.875,119.877 87.73,119.877 71.219,173.943 	"/>
	<polygon fill-rule="evenodd" clip-rule="evenodd" fill="#FFFFFF" points="150.519,159.995 124.841,159.995 120.603,173.943 
		150.618,173.943 146.379,188.038 99.41,188.038 120.208,119.877 167.078,119.877 162.791,134.071 132.727,134.071 129.08,146.098 
		154.757,146.098 	"/>
	<polygon fill-rule="evenodd" clip-rule="evenodd" fill="#FFFFFF" points="176.098,159.955 171.858,173.902 201.922,173.902 
		197.634,188.048 150.616,188.048 171.464,119.838 218.334,119.838 214.047,134.031 184.032,134.031 180.336,146.057 
		205.964,146.057 201.727,159.955 	"/>
	<polygon fill-rule="evenodd" clip-rule="evenodd" fill="#FFFFFF" points="274.814,134.071 254.953,134.071 238.443,188.038 
		221.587,188.038 238.048,134.071 218.384,134.071 222.77,119.877 279.103,119.877 	"/>
</g>
</svg>
