<?xml version="1.0" encoding="utf-8"?>
<!-- Generator: Adobe Illustrator 16.0.3, SVG Export Plug-In . SVG Version: 6.00 Build 0)  -->
<!DOCTYPE svg PUBLIC "-//W3C//DTD SVG 1.1//EN" "http://www.w3.org/Graphics/SVG/1.1/DTD/svg11.dtd">
<svg version="1.1" id="Layer_1" xmlns="http://www.w3.org/2000/svg" xmlns:xlink="http://www.w3.org/1999/xlink" x="0px" y="0px"
	 width="7.413px" height="14.199px" viewBox="0 0 7.413 14.199" enable-background="new 0 0 7.413 14.199" xml:space="preserve">
<g>
	<defs>
		<rect id="SVGID_1_" width="7.413" height="14.199"/>
	</defs>
	<clipPath id="SVGID_2_">
		<use xlink:href="#SVGID_1_"  overflow="visible"/>
	</clipPath>
	<path clip-path="url(#SVGID_2_)" fill="#FFFFFF" d="M5.911,2.396c0.44-0.015,1.503-0.004,1.503-0.004V0.104
		c-0.235-0.024-0.481-0.058-0.728-0.07C6.235,0.016,5.784-0.007,5.332,0.002C4.643,0.018,3.99,0.186,3.421,0.594
		c-0.654,0.47-1.013,1.131-1.149,1.91C2.215,2.826,2.2,3.159,2.191,3.485C2.179,4,2.189,5.22,2.189,5.22H0v2.555h2.177v6.425h2.66
		V7.785h2.17c0.11-0.85,0.22-1.691,0.334-2.568c-0.175,0-2.521,0-2.521,0S4.825,3.951,4.841,3.4
		C4.861,2.647,5.309,2.417,5.911,2.396"/>
</g>
</svg>
