<?xml version="1.0" encoding="utf-8"?>
<!-- Generator: Adobe Illustrator 16.0.3, SVG Export Plug-In . SVG Version: 6.00 Build 0)  -->
<!DOCTYPE svg PUBLIC "-//W3C//DTD SVG 1.1//EN" "http://www.w3.org/Graphics/SVG/1.1/DTD/svg11.dtd">
<svg version="1.1" id="Layer_1" xmlns="http://www.w3.org/2000/svg" xmlns:xlink="http://www.w3.org/1999/xlink" x="0px" y="0px"
	 width="71px" height="41px" viewBox="0 0 71 41" enable-background="new 0 0 71 41" xml:space="preserve">
<path fill-opacity="0.5" d="M70.5,20.5c0,11.046-8.954,20-20,20h-30c-11.046,0-20-8.954-20-20l0,0c0-11.046,8.954-20,20-20h30
	C61.546,0.5,70.5,9.454,70.5,20.5L70.5,20.5z"/>
<path fill="#FFFFFF" d="M50.5,41h-30C9.196,41,0,31.804,0,20.5S9.196,0,20.5,0h30C61.804,0,71,9.196,71,20.5S61.804,41,50.5,41z
	 M20.5,1C9.748,1,1,9.748,1,20.5S9.748,40,20.5,40h30C61.252,40,70,31.252,70,20.5S61.252,1,50.5,1H20.5z"/>
<g>
	<path fill="#FFFFFF" d="M43.201,3.124H27.799c-5.232,0-9.486,4.255-9.486,9.486v15.403c0,5.231,4.254,9.486,9.486,9.486h15.402
		c5.23,0,9.486-4.257,9.486-9.486V12.61C52.688,7.379,48.432,3.124,43.201,3.124L43.201,3.124z M49.637,28.014
		c0,3.549-2.887,6.437-6.436,6.437H27.799c-3.55,0-6.438-2.888-6.438-6.437V12.61c0-3.549,2.888-6.437,6.438-6.437h15.402
		c3.549,0,6.436,2.888,6.436,6.437V28.014z M49.637,28.014"/>
	<path fill="#FFFFFF" d="M35.5,11.455c-4.885,0-8.858,3.973-8.858,8.857c0,4.884,3.974,8.857,8.858,8.857
		c4.883,0,8.857-3.974,8.857-8.857C44.357,15.428,40.383,11.455,35.5,11.455L35.5,11.455z M35.5,26.119
		c-3.203,0-5.809-2.604-5.809-5.807s2.605-5.809,5.809-5.809s5.808,2.606,5.808,5.809S38.701,26.119,35.5,26.119L35.5,26.119z
		 M35.5,26.119"/>
	<path fill="#FFFFFF" d="M44.729,8.868c-0.587,0-1.164,0.237-1.579,0.654c-0.418,0.415-0.657,0.993-0.657,1.583
		c0,0.588,0.24,1.165,0.657,1.581c0.414,0.416,0.992,0.654,1.579,0.654c0.59,0,1.165-0.238,1.582-0.654s0.655-0.994,0.655-1.581
		c0-0.59-0.238-1.168-0.655-1.583C45.896,9.105,45.318,8.868,44.729,8.868L44.729,8.868z M44.729,8.868"/>
</g>
</svg>
