<?xml version="1.0" encoding="utf-8"?>
<!-- Generator: Adobe Illustrator 21.0.2, SVG Export Plug-In . SVG Version: 6.00 Build 0)  -->
<svg version="1.1" id="Layer_1" xmlns="http://www.w3.org/2000/svg" xmlns:xlink="http://www.w3.org/1999/xlink" x="0px" y="0px"
	 viewBox="0 0 65 65" enable-background="new 0 0 65 65" xml:space="preserve">
<g>
</g>
<g>
	<g>
		<rect x="64.013" y="33.185" width="0.987" height="20.139"/>
	</g>
	<g>
		<g>
			<path d="M21.939,65h-0.542c-0.796,0-1.593-0.017-2.388-0.049c-0.924-0.034-1.866-0.083-2.826-0.149l-2.715-0.196l-2.683-0.299
				c-0.905-0.134-1.778-0.267-2.633-0.397c-0.857-0.133-1.697-0.263-2.52-0.395c-0.448-0.104-0.863-0.183-1.279-0.247l-0.127-0.019
				L4.125,63.17c-0.293-0.229-0.57-0.441-0.831-0.636c-0.444-0.34-0.797-0.626-1.066-0.862c-0.237-0.234-0.414-0.43-0.554-0.607
				c-0.313-0.382-0.582-0.794-0.795-1.222c-0.148-0.294-0.26-0.594-0.334-0.891c-0.191-0.498-0.348-1.094-0.452-1.715
				c-0.034-0.245-0.068-0.495-0.102-0.761l-0.004-0.109V33.185h0.986v2.392l4.447-1.861l0.38,0.91l-1.977,0.828h57.613l-1.979-0.828
				l0.383-0.91l4.241,1.776v0.91l-4.241,1.776l-0.383-0.909l1.979-0.829H3.824l1.979,0.829l-0.381,0.909l-4.447-1.861v10.315
				c0.307-0.591,0.72-1.15,1.229-1.661c0.466-0.396,1.106-0.884,1.936-1.481l0.197-0.084c1.057-0.199,2.114-0.38,3.171-0.546
				c1.154-0.197,2.324-0.364,3.473-0.497c1.122-0.131,2.245-0.247,3.368-0.345c1.055-0.099,2.112-0.182,3.169-0.248l3.879-0.1
				c0.731,0,1.461,0.017,2.192,0.05c0.93,0.002,1.913,0.032,2.873,0.099c0.87,0.031,1.795,0.099,2.732,0.199
				c0.87,0.063,1.779,0.164,2.683,0.298l2.567,0.396c0.663,0.099,1.33,0.215,1.994,0.349c0.16,0.032,0.337,0.063,0.529,0.097
				c0.811,0.167,1.636,0.349,2.495,0.548c0.754,0.163,1.56,0.364,2.39,0.598c0.751,0.196,1.529,0.411,2.323,0.643
				c0.72,0.197,1.492,0.433,2.286,0.696c0.723,0.229,1.468,0.478,2.226,0.742l2.191,0.796c0.671,0.224,1.396,0.493,2.127,0.792
				c0.69,0.263,1.414,0.566,2.137,0.895c0.644,0.258,1.342,0.556,2.072,0.887c0.642,0.258,1.34,0.557,2.071,0.89
				c0.652,0.294,1.325,0.589,2.012,0.882c0.936,0.436,1.878,0.881,2.832,1.343L65,53.324l-0.871,0.431
				c-2.668,1.284-5.21,2.448-7.565,3.462c-1.727,0.716-3.408,1.383-5.003,1.98c-0.392,0.163-0.796,0.315-1.201,0.451
				c-1.156,0.428-2.307,0.829-3.409,1.185c-1.45,0.46-2.863,0.905-4.248,1.334c-1.379,0.369-2.712,0.704-3.981,0.996
				c-0.77,0.166-1.531,0.316-2.294,0.449c-0.491,0.098-0.977,0.181-1.445,0.25c-1.144,0.193-2.298,0.375-3.453,0.541
				c-1.135,0.133-2.241,0.249-3.33,0.349l-3.171,0.198C23.988,64.983,22.963,65,21.939,65z M17.338,63.887
				c0.576,0.031,1.145,0.06,1.708,0.077c0.785,0.033,1.567,0.051,2.351,0.051h0.338l19.03-18.985
				c-0.524-0.136-1.031-0.257-1.518-0.363c-0.764-0.176-1.496-0.339-2.202-0.486L17.338,63.887z M41.867,45.326l-18.728,18.68
				c0.614-0.008,1.228-0.02,1.842-0.042l2.956-0.186l17.449-17.449c-0.508-0.16-1.001-0.305-1.479-0.435
				C43.21,45.691,42.532,45.502,41.867,45.326z M11.913,63.44l1.646,0.182l2.468,0.179l19.848-19.846
				c-0.526-0.1-1.054-0.19-1.579-0.27l-2.32-0.356L11.913,63.44z M46.441,46.67L29.475,63.637c0.635-0.064,1.278-0.137,1.926-0.212
				c1.085-0.155,2.178-0.327,3.274-0.511l15.134-15.09l-1.447-0.51C47.71,47.087,47.07,46.873,46.441,46.67z M6.743,62.69
				c0.508,0.08,1.03,0.162,1.558,0.244c0.775,0.118,1.563,0.237,2.365,0.356L30.752,43.16c-0.553-0.066-1.106-0.12-1.648-0.16
				c-0.854-0.092-1.684-0.154-2.48-0.188L6.743,62.69z M50.828,48.203L36.363,62.621c0.721-0.128,1.432-0.267,2.144-0.42
				c1.212-0.281,2.49-0.601,3.795-0.948l11.78-11.78c-0.491-0.21-0.971-0.406-1.439-0.585
				C52.022,48.634,51.415,48.406,50.828,48.203z M4.63,62.313c0.308,0.05,0.616,0.106,0.923,0.174l19.746-19.746
				c-0.58-0.023-1.159-0.036-1.732-0.036c-0.738-0.033-1.454-0.049-2.17-0.049h-0.585L2.735,60.779
				c0.053,0.059,0.108,0.113,0.167,0.173c0.234,0.203,0.571,0.476,0.988,0.798C4.121,61.921,4.368,62.109,4.63,62.313z
				 M55.055,49.896L44.32,60.63c0.766-0.239,1.542-0.486,2.33-0.737c1.085-0.351,2.223-0.745,3.38-1.175
				c0.369-0.123,0.723-0.256,1.077-0.401l7.115-7.069c-0.481-0.212-0.947-0.407-1.396-0.587
				C56.202,50.377,55.615,50.124,55.055,49.896z M0.996,56.552c0.024,0.185,0.049,0.364,0.073,0.537
				c0.091,0.546,0.232,1.079,0.417,1.572c0.074,0.28,0.161,0.512,0.275,0.741c0.103,0.206,0.22,0.407,0.352,0.604l17.265-17.311
				l-1.814,0.059c-0.976,0.061-1.962,0.137-2.952,0.229L0.996,56.552z M59.189,51.68l-5.793,5.754
				c0.912-0.359,1.842-0.734,2.783-1.126c2.061-0.888,4.275-1.895,6.594-2.999c-0.633-0.302-1.258-0.595-1.879-0.884
				C60.322,52.18,59.75,51.931,59.189,51.68z M0.975,50.653v4.526l12.096-12.053c-0.659,0.067-1.317,0.138-1.976,0.217
				c-1.082,0.123-2.181,0.279-3.273,0.463L0.975,50.653z M4.626,44.354c-0.765,0.552-1.354,1.004-1.755,1.342
				c-0.454,0.458-0.836,0.992-1.105,1.561c-0.25,0.499-0.45,1.106-0.6,1.81l4.985-4.986C5.644,44.167,5.135,44.259,4.626,44.354z"/>
		</g>
	</g>
</g>
</svg>
