<?xml version="1.0" encoding="utf-8"?>
<!-- Generator: Adobe Illustrator 21.0.2, SVG Export Plug-In . SVG Version: 6.00 Build 0)  -->
<svg version="1.1" id="Layer_1" xmlns="http://www.w3.org/2000/svg" xmlns:xlink="http://www.w3.org/1999/xlink" x="0px" y="0px"
	 viewBox="0 0 65 65" enable-background="new 0 0 65 65" xml:space="preserve">
<g>
</g>
<g>
	<g>
		<path d="M65,64.996H0l11.203-23.608H20.7c-0.563-0.693-1.11-1.405-1.635-2.131c-2.144-2.823-3.235-6.147-3.235-9.869
			c0-4.581,1.634-8.555,4.854-11.811c3.298-3.226,7.271-4.858,11.816-4.858c4.548,0,8.487,1.634,11.708,4.856
			c3.292,3.256,4.962,7.232,4.962,11.813c0,3.652-1.074,6.922-3.19,9.721c-0.546,0.771-1.128,1.537-1.73,2.279h9.549L65,64.996z
			 M1.592,63.989h61.815L53.159,42.396h-9.748c-3.287,3.983-6.857,7.382-10.616,10.106l-0.294,0.211l-0.295-0.21
			c-3.81-2.725-7.408-6.125-10.694-10.106h-9.673L1.592,63.989z M22.825,42.396c2.999,3.536,6.248,6.585,9.674,9.074
			c3.379-2.488,6.603-5.537,9.599-9.074H42.08l0.71-0.832c0.832-0.971,1.633-1.999,2.378-3.051c1.991-2.632,2.996-5.698,2.996-9.125
			c0-4.303-1.571-8.037-4.668-11.099C40.47,15.26,36.77,13.726,32.5,13.726c-4.272,0-8.009,1.536-11.106,4.565
			c-3.021,3.055-4.557,6.791-4.557,11.097c0,3.497,1.021,6.616,3.036,9.269c0.727,1.002,1.488,1.974,2.274,2.895
			c0.02,0.021,0.04,0.046,0.059,0.07l0.659,0.773H22.825z M32.5,37.948c-2.358,0-4.43-0.858-6.16-2.55
			c-1.665-1.703-2.505-3.757-2.505-6.115c0-2.357,0.84-4.413,2.497-6.107c1.738-1.7,3.809-2.558,6.167-2.558
			c2.36,0,4.416,0.859,6.112,2.553l0,0c1.694,1.696,2.553,3.752,2.553,6.111c0,2.36-0.858,4.416-2.553,6.111
			C36.915,37.089,34.859,37.948,32.5,37.948z M32.5,21.625c-2.115,0-3.899,0.74-5.455,2.262c-1.48,1.514-2.203,3.281-2.203,5.396
			c0,2.114,0.722,3.883,2.21,5.403c1.548,1.515,3.333,2.254,5.447,2.254c2.112,0,3.879-0.738,5.399-2.258
			c1.52-1.521,2.259-3.287,2.259-5.399c0-2.112-0.739-3.877-2.259-5.399l0,0C36.379,22.365,34.612,21.625,32.5,21.625z"/>
	</g>
</g>
</svg>
