<svg id="Layer_1" data-name="Layer 1" xmlns="http://www.w3.org/2000/svg" viewBox="0 0 406 241.3"><defs><style>.cls-1{fill:#f4cb06;}.cls-1,.cls-2{fill-rule:evenodd;}.cls-2{fill:#fff;}</style></defs><title>001_logo_preloader_fleet5_001</title><path class="cls-1" d="M346.65,121.85l32.13-108L369,19.2a373.76,373.76,0,0,0-44.19,30.7q-10.41,8.4-20.62,17.8-50.25,46-96,115.7l-5,7.65h64.26l2.25-7.65h44.64a7.7,7.7,0,1,0,0-15.4h-40L288,121.85Z" transform="translate(-0.36 -0.35)"/><path class="cls-2" d="M388.54,8.55l-38.29,128.7H298.8l-4.6,15.35h21.07l.1,0a23.06,23.06,0,0,1-.15,46.11v0h-117q-4.75,7.6-9.46,15.4H306a23.93,23.93,0,0,1,4.7.55,23.33,23.33,0,0,1,17.82,22.5,22.85,22.85,0,0,1-.35,4,1.65,1.65,0,0,1,0,.4h6.41L406.36.35q-9,3.8-17.82,8.2" transform="translate(-0.36 -0.35)"/><polygon class="cls-2" points="33.88 135.94 29.73 149.49 55.8 149.49 51.4 163.89 25.38 163.89 17.22 190.69 0 190.69 21.12 121.54 67.52 121.54 63.16 135.94 33.88 135.94"/><polygon class="cls-2" points="101.05 176.39 96.75 190.69 50.75 190.69 71.87 121.54 88.99 121.54 72.22 176.39 101.05 176.39"/><polygon class="cls-2" points="152.75 162.24 126.67 162.24 122.37 176.39 152.85 176.39 148.55 190.69 100.85 190.69 121.97 121.54 169.57 121.54 165.21 135.94 134.68 135.94 130.98 148.14 157.06 148.14 152.75 162.24"/><polygon class="cls-2" points="178.73 162.2 174.42 176.35 204.95 176.35 200.6 190.7 152.85 190.7 174.02 121.5 221.62 121.5 217.26 135.9 186.78 135.9 183.03 148.1 209.06 148.1 204.75 162.2 178.73 162.2"/><polygon class="cls-2" points="278.98 135.94 258.81 135.94 242.04 190.69 224.92 190.69 241.64 135.94 221.67 135.94 226.12 121.54 283.33 121.54 278.98 135.94"/></svg>