<?xml version="1.0" encoding="utf-8"?>
<!-- Generator: Adobe Illustrator 16.0.3, SVG Export Plug-In . SVG Version: 6.00 Build 0)  -->
<!DOCTYPE svg PUBLIC "-//W3C//DTD SVG 1.1//EN" "http://www.w3.org/Graphics/SVG/1.1/DTD/svg11.dtd">
<svg version="1.1" id="Layer_1" xmlns="http://www.w3.org/2000/svg" xmlns:xlink="http://www.w3.org/1999/xlink" x="0px" y="0px"
	 width="65px" height="65px" viewBox="0 0 65 65" enable-background="new 0 0 65 65" xml:space="preserve">
<g>
</g>
<g>
	<g>
		<path d="M43.06,65.022h-1.146v-7.098h1.146V65.022z M31.843,65.022h-1.145v-7.098h1.145V65.022z M20.397,65.022h-1.145v-7.098
			h1.145V65.022z M9.409,65.022H8.264v-7.098h1.145V65.022z M43.06,51.288h-1.146v-6.866h1.146V51.288z M31.843,51.288h-1.145
			v-6.866h1.145V51.288z M20.397,51.288h-1.145v-6.866h1.145V51.288z M9.409,51.288H8.264v-6.866h1.145V51.288z M47.408,40.185H3
			v-0.571c0-5.487,2.201-10.233,6.543-14.104c2.765-2.493,5.949-4.192,9.459-5.05c1.352-0.347,2.789-0.573,4.27-0.672
			c0.16-4.313,1.765-7.978,4.899-11.189c3.349-3.27,7.392-4.923,12.028-4.923h21.858V0.012h1.146v11.903h-1.146V8.252H40.199
			c-3.378,0-6.346,1.217-8.815,3.617c-2.153,2.22-3.341,4.892-3.525,7.94c4.934,0.522,9.438,2.486,13.063,5.699
			c4.306,3.875,6.487,8.62,6.487,14.105V40.185z M4.153,39.041h42.102c-0.147-4.907-2.196-9.169-6.097-12.68
			c-3.565-3.161-8.039-5.05-12.934-5.462c-0.673-0.039-1.347-0.057-2.02-0.057c-0.365,0-1.321,0.038-1.685,0.075l0,0l0,0
			c-1.472,0.089-2.896,0.308-4.239,0.651c-3.331,0.814-6.346,2.426-8.973,4.792C6.369,29.872,4.302,34.134,4.153,39.041z
			 M25.204,19.697c0.504,0,1.008,0.011,1.512,0.031c0.203-3.323,1.5-6.237,3.856-8.669c2.706-2.626,5.939-3.952,9.626-3.952h21.858
			V4.818H40.199c-4.329,0-8.101,1.544-11.219,4.587c-2.889,2.961-4.387,6.34-4.56,10.31C24.694,19.704,24.985,19.697,25.204,19.697z
			"/>
	</g>
</g>
</svg>
