<?xml version="1.0" encoding="utf-8"?>
<!-- Generator: Adobe Illustrator 21.0.2, SVG Export Plug-In . SVG Version: 6.00 Build 0)  -->
<svg version="1.1" id="Layer_1" xmlns="http://www.w3.org/2000/svg" xmlns:xlink="http://www.w3.org/1999/xlink" x="0px" y="0px"
	 viewBox="0 0 65 65" enable-background="new 0 0 65 65" xml:space="preserve">
<g>
</g>
<g>
	<g>
		<path d="M57.3,64.98h-3V60.88H11.2v4.101h-3V60.88h-7v-7.25h3.9V31.48h55.2V53.63h3.95v7.25H57.3V64.98z M55.3,63.98h1V60.88h-1
			V63.98z M9.2,63.98h1V60.88h-1V63.98z M56.8,59.88h6.45v-5.25H2.2v5.25H56.8z M6.125,53.667h53.2L59.3,32.48H6.1L6.125,53.667z
			 M53.8,52.58H11.7c-1.572,0-2.459-0.848-2.5-2.388V50.08c0.108-3.407,2.01-5.2,5.5-5.2h0.5v-1.8c0-2.944,1.556-4.5,4.5-4.5h7.2
			c2.944,0,4.5,1.556,4.5,4.5v1.8h2.7v-1.8c0-2.944,1.556-4.5,4.5-4.5h7.2c2.944,0,4.5,1.556,4.5,4.5v1.8h0.5
			c3.49,0,5.392,1.793,5.5,5.185v0.115C56.26,51.732,55.371,52.58,53.8,52.58z M10.2,50.167c0.026,0.99,0.475,1.413,1.5,1.413h42.1
			c1.025,0,1.475-0.423,1.5-1.413c-0.091-2.947-1.521-4.287-4.5-4.287H14.7c-2.979,0-4.409,1.34-4.5,4.216L10.2,50.167z M35.1,44.88
			h14.2v-1.8c0-2.388-1.112-3.5-3.5-3.5h-7.2c-2.388,0-3.5,1.112-3.5,3.5V44.88z M16.2,44.88h14.2v-1.8c0-2.388-1.112-3.5-3.5-3.5
			h-7.2c-2.388,0-3.5,1.112-3.5,3.5V44.88z"/>
	</g>
</g>
</svg>
