<?xml version="1.0" encoding="UTF-8"?><!DOCTYPE svg PUBLIC "-//W3C//DTD SVG 1.1//EN" "http://www.w3.org/Graphics/SVG/1.1/DTD/svg11.dtd"><svg xmlns="http://www.w3.org/2000/svg"><symbol id="icon-arrow-left" viewBox="0 0 57.9 52.4">
    <path d="M4.1 27.3l23.6 23.5-1.5 1.6L0 26.2 26.2 0l1.5 1.6L4.1 25.1h53.8v2.2z"/>
</symbol><symbol id="icon-arrow-sm" viewBox="0 0 11 5.92">
    <title>
        arrowsm
    </title>
    <path d="M2.74 3.28L0 .64.32.32a2.84 2.84 0 0 1 .34-.35l2.41 2.32C4.4 3.59 5.5 4.63 5.5 4.63s1.1-1 2.42-2.31l2.41-2.35a3.11 3.11 0 0 1 .34.32l.32.32-2.74 2.64L5.5 5.97S4.24 4.79 2.74 3.33z"/>
</symbol><symbol id="icon-arrow" viewBox="0 0 57.9 52.4">
    <path d="M4.1 27.3l23.6 23.5-1.5 1.6L0 26.2 26.2 0l1.5 1.6L4.1 25.1h53.8v2.2z"/>
</symbol><symbol id="icon-card" viewBox="-277 405.9 41 31">
    <style>
        .st0{fill:#e2e2e2}
    </style>
    <path class="st0" d="M-238.5 436.9h-36c-1.4 0-2.5-1.1-2.5-2.5v-26c0-1.4 1.1-2.5 2.5-2.5h36c1.4 0 2.5 1.1 2.5 2.5v26c0 1.4-1.1 2.5-2.5 2.5zm-36-30c-.8 0-1.5.7-1.5 1.5v26c0 .8.7 1.5 1.5 1.5h36c.8 0 1.5-.7 1.5-1.5v-26c0-.8-.7-1.5-1.5-1.5h-36z"/>
    <path id="Rectangle_5_copy_12" class="st0" d="M-274.5 406.4h36c1.1 0 2 .9 2 2v18h-40v-18c0-1.1.9-2 2-2z"/>
</symbol><symbol id="icon-close-bold" viewBox="0 0 21 21">
    <path d="M20.8 2.5c.3.3.3.8 0 1.1l-6.3 6.3c-.3.3-.3.8 0 1.1l6.3 6.3c.3.3.3.8 0 1.1l-2.3 2.3c-.3.3-.8.3-1.1 0l-6.3-6.3c-.3-.3-.8-.3-1.1 0l-6.3 6.3c-.3.3-.8.3-1.1 0L.3 18.4c-.3-.3-.3-.8 0-1.1L6.6 11c.3-.3.3-.8 0-1.1L.2 3.7c-.3-.3-.3-.8 0-1.1L2.5.3c.3-.3.8-.3 1.1 0l6.3 6.3c.3.3.8.3 1.1 0L17.3.3c.3-.3.8-.3 1.1 0l2.4 2.2z"/>
</symbol><symbol id="icon-close-m" viewBox="0 0 357 357">
    <path d="M357 35.7L321.3 0 178.5 142.8 35.7 0 0 35.7l142.8 142.8L0 321.3 35.7 357l142.8-142.8L321.3 357l35.7-35.7-142.8-142.8z"/>
</symbol><symbol id="icon-close" viewBox="0 0 256 256">
    <path d="M137.051 128l75.475-75.475c2.5-2.5 2.5-6.551 0-9.051s-6.551-2.5-9.051 0L128 118.949 52.525 43.475c-2.5-2.5-6.551-2.5-9.051 0s-2.5 6.551 0 9.051L118.949 128l-75.475 75.475a6.399 6.399 0 0 0 4.525 10.926 6.38 6.38 0 0 0 4.525-1.875L128 137.051l75.475 75.475c1.25 1.25 2.888 1.875 4.525 1.875s3.275-.625 4.525-1.875c2.5-2.5 2.5-6.551 0-9.051L137.051 128z"/>
</symbol><symbol id="icon-fav-star" viewBox="0 0 487.222 487.222">
    <path d="M486.554 186.811c-1.6-4.9-5.8-8.4-10.9-9.2l-152-21.6-68.4-137.5c-2.3-4.6-7-7.5-12.1-7.5s-9.8 2.9-12.1 7.6l-67.5 137.9-152 22.6c-5.1.8-9.3 4.3-10.9 9.2s-.2 10.3 3.5 13.8l110.3 106.9-25.5 151.4c-.9 5.1 1.2 10.2 5.4 13.2 2.3 1.7 5.1 2.6 7.9 2.6 2.2 0 4.3-.5 6.3-1.6l135.7-71.9 136.1 71.1c2 1 4.1 1.5 6.2 1.5 7.4 0 13.5-6.1 13.5-13.5 0-1.1-.1-2.1-.4-3.1l-26.3-150.5 109.6-107.5c3.9-3.6 5.2-9 3.6-13.9zm-137 107.1c-3.2 3.1-4.6 7.6-3.8 12l22.9 131.3-118.2-61.7c-3.9-2.1-8.6-2-12.6 0l-117.8 62.4 22.1-131.5c.7-4.4-.7-8.8-3.9-11.9l-95.6-92.8 131.9-19.6c4.4-.7 8.2-3.4 10.1-7.4l58.6-119.7 59.4 119.4c2 4 5.8 6.7 10.2 7.4l132 18.8-95.3 93.3z"/>
</symbol><symbol id="icon-list" viewBox="-277 405.9 41 30">
    <path class="st0" d="M-277 413.9v-8h8v8h-8z"/>
    <path class="st0" d="M-277 424.9v-8h8v8h-8z"/>
    <path class="st0" d="M-277 435.9v-8h8v8h-8z"/>
    <path class="st0" d="M-266 432.9v-2h30v2h-30z"/>
    <path class="st0" d="M-266 421.9v-2h30v2h-30z"/>
    <path class="st0" d="M-266 410.9v-2h30v2h-30z"/>
</symbol><symbol id="icon-search" viewBox="0 0 32 32">
    <title/>
    <path d="M19.427 20.427a8.5 8.5 0 1 1 1.083-.917l5.998 5.998a.699.699 0 0 1-.008.992.7.7 0 0 1-.992.008l-6.08-6.08zM14.5 21a7.5 7.5 0 1 0 0-15 7.5 7.5 0 0 0 0 15z" fill-rule="evenodd"/>
</symbol></svg>