<?xml version="1.0" encoding="utf-8"?>
<!-- Generator: Adobe Illustrator 16.0.3, SVG Export Plug-In . SVG Version: 6.00 Build 0)  -->
<!DOCTYPE svg PUBLIC "-//W3C//DTD SVG 1.1//EN" "http://www.w3.org/Graphics/SVG/1.1/DTD/svg11.dtd">
<svg version="1.1" id="Layer_1" xmlns="http://www.w3.org/2000/svg" xmlns:xlink="http://www.w3.org/1999/xlink" x="0px" y="0px"
	 width="65px" height="65px" viewBox="0 0 65 65" enable-background="new 0 0 65 65" xml:space="preserve">
<g>
</g>
<g>
	<g>
		<path d="M41.621,65c-1.227,0-2.37-0.359-3.396-1.071c-0.837-0.536-1.896-0.513-2.636,0c-1.914,1.374-4.596,1.466-6.787,0.004
			c-0.687-0.515-1.765-0.569-2.658,0.005c-1.882,1.359-4.631,1.459-6.68-0.015c-0.81-0.482-1.872-0.549-2.75,0.015
			c-0.97,0.7-2.079,1.063-3.275,1.063c-1.265,0-2.412-0.362-3.405-1.077c-0.942-0.561-1.99-0.475-2.75,0.015
			C6.314,64.638,5.205,65,4.01,65c-0.705,0-1.365-0.101-1.96-0.299l-0.682-0.228l0.407-0.593c1.584-2.311,4.037-3.93,7.303-4.82
			L0,54.244v-4.095h10.838v3.252h2.446l6.503-4.064h-3.452l-6.409-3.534l0.262-1.017h8.057l-4.005-2.465l0.283-1.004h1.809
			l-0.581-1.844h-4.416l-5.768-3.549l0.284-1.002h8.461l-0.976-2.928h3.653l5.853,9.322h11.442l6.068,3.469h4.879l6.195,3.539
			l-0.269,1.012h-2.837l2.655,1.518h12.523l1.518,1.872L64.4,53.024c-6.149,2.949-11.174,6.785-14.936,11.396l-0.245,0.299
			l-0.361-0.132c-0.445-0.162-0.858-0.389-1.229-0.676c-0.794-0.506-1.872-0.494-2.681,0.026C43.937,64.641,42.813,65,41.621,65z
			 M36.907,62.452c0.682,0,1.328,0.195,1.918,0.575c0.87,0.601,1.779,0.89,2.796,0.89c0.98,0,1.872-0.289,2.727-0.881
			c1.182-0.762,2.692-0.792,3.906-0.009c0.209,0.158,0.417,0.29,0.63,0.393c3.703-4.44,8.555-8.163,14.433-11.073l-0.33-0.408
			H45.563c-0.252,0.304-0.519,0.595-0.794,0.871c-0.565,0.565-1.234,1.1-1.986,1.589l-0.135,0.087
			c-0.598,0.376-1.265,0.742-1.986,1.086c-5.073,2.373-13.079,3.647-23.8,3.791c-0.239,0-0.488,0.019-0.753,0.052l-3.954,0.112
			c-0.467,0.065-0.957,0.152-1.411,0.256l-0.01-0.042l-0.007,0.045c-3.363,0.661-5.908,2.028-7.578,4.067
			c0.275,0.043,0.562,0.064,0.861,0.064c0.976,0,1.848-0.285,2.665-0.875c1.136-0.733,2.594-0.843,3.955-0.024
			c0.854,0.614,1.761,0.899,2.81,0.899c0.977,0,1.848-0.285,2.664-0.875c1.257-0.811,2.732-0.759,3.956-0.024
			c0.855,0.614,1.727,0.899,2.702,0.899c1.05,0,1.957-0.285,2.773-0.875c1.308-0.844,2.899-0.74,3.894,0.008
			c0.855,0.567,1.793,0.867,2.763,0.867c1.049,0,1.955-0.285,2.772-0.875C35.532,62.649,36.183,62.452,36.907,62.452z M2.661,54.485
			l8.037,4.197c0.43-0.092,0.891-0.171,1.371-0.237l3.958-0.111c0.261-0.036,0.555-0.056,0.828-0.056
			c10.56-0.141,18.417-1.381,23.344-3.688c0.074-0.034,0.146-0.069,0.219-0.105H2.661z M15.329,53.401h26.997
			c0.633-0.423,1.198-0.878,1.677-1.357c0.308-0.309,0.603-0.641,0.88-0.985l0.164-0.204h3.746l-2.654-1.518H21.833L15.329,53.401z
			 M7.587,53.401h2.167v-2.167H7.587V53.401z M4.335,53.401h2.167v-2.167H4.335V53.401z M1.084,53.401h2.167v-2.167H1.084V53.401z
			 M46.282,48.254h2.837l-4.175-2.384H12.292l4.323,2.384H46.282z M20.313,44.786H38.17l-4.172-2.385h-17.56L20.313,44.786z
			 M17.469,41.317h4.096l-5.173-8.238h-1.55l0.977,2.927H7.767l3.875,2.384h4.905L17.469,41.317z"/>
	</g>
</g>
</svg>
