<?xml version="1.0" encoding="utf-8"?>
<!-- Generator: Adobe Illustrator 16.0.3, SVG Export Plug-In . SVG Version: 6.00 Build 0)  -->
<!DOCTYPE svg PUBLIC "-//W3C//DTD SVG 1.1//EN" "http://www.w3.org/Graphics/SVG/1.1/DTD/svg11.dtd">
<svg version="1.1" id="Layer_1" xmlns="http://www.w3.org/2000/svg" xmlns:xlink="http://www.w3.org/1999/xlink" x="0px" y="0px"
	 width="18px" height="34.47px" viewBox="0 0 18 34.47" enable-background="new 0 0 18 34.47" xml:space="preserve">
<path fill="#6081C4" d="M14.352,5.847C15.42,5.809,18,5.838,18,5.838V0.283c-0.571-0.06-1.169-0.141-1.766-0.169
	c-1.096-0.047-2.191-0.104-3.289-0.08c-1.674,0.038-3.257,0.445-4.64,1.437c-1.588,1.141-2.459,2.745-2.79,4.637
	C5.378,6.891,5.341,7.696,5.321,8.49c-0.031,1.25-0.005,4.211-0.005,4.211H0v6.201h5.286V34.5h6.458V18.929h5.268
	c0.268-2.063,0.533-4.106,0.811-6.235c-0.424,0-6.121,0-6.121,0s0.014-3.072,0.052-4.409C11.803,6.456,12.889,5.899,14.352,5.847"/>
</svg>
