<?xml version="1.0" encoding="utf-8"?>
<!-- Generator: Adobe Illustrator 16.0.3, SVG Export Plug-In . SVG Version: 6.00 Build 0)  -->
<!DOCTYPE svg PUBLIC "-//W3C//DTD SVG 1.1//EN" "http://www.w3.org/Graphics/SVG/1.1/DTD/svg11.dtd">
<svg version="1.1" id="Layer_1" xmlns="http://www.w3.org/2000/svg" xmlns:xlink="http://www.w3.org/1999/xlink" x="0px" y="0px"
	 width="28.77px" height="34.53px" viewBox="0 0 28.77 34.53" enable-background="new 0 0 28.77 34.53" xml:space="preserve">
<path fill="#FFFFFF" d="M24.34,25.228h-1.896l0.01-1.1c0-0.491,0.401-0.891,0.893-0.891h0.122c0.491,0,0.895,0.399,0.895,0.891
	L24.34,25.228z M17.23,22.869c-0.479,0-0.873,0.323-0.873,0.719v5.353c0,0.396,0.394,0.718,0.873,0.718
	c0.483,0,0.877-0.322,0.877-0.718v-5.353C18.107,23.192,17.714,22.869,17.23,22.869L17.23,22.869z M28.773,19.874v10.185
	c0,2.442-2.117,4.441-4.707,4.441H4.708C2.118,34.5,0,32.5,0,30.059V19.874c0-2.443,2.118-4.441,4.708-4.441h19.358
	C26.656,15.433,28.773,17.432,28.773,19.874L28.773,19.874z M5.999,31.164L5.998,20.438l2.399,0.001v-1.591l-6.396-0.01V20.4
	l1.997,0.006v10.757L5.999,31.164L5.999,31.164z M13.192,22.036h-2v5.727c0,0.83,0.05,1.244-0.003,1.39
	c-0.164,0.443-0.895,0.916-1.179,0.049c-0.048-0.153-0.005-0.611-0.006-1.398l-0.009-5.768h-1.99l0.007,5.676
	c0,0.871-0.02,1.52,0.007,1.814c0.048,0.521,0.03,1.128,0.515,1.474c0.899,0.649,2.625-0.096,3.056-1.022l-0.003,1.182l1.606,0.003
	L13.192,22.036L13.192,22.036z M19.594,28.595l-0.004-4.768c-0.002-1.817-1.361-2.906-3.207-1.437l0.008-3.545l-1.999,0.004
	l-0.01,12.233l1.644-0.023l0.148-0.763C18.276,32.226,19.596,30.905,19.594,28.595L19.594,28.595z M25.855,27.963l-1.501,0.008
	c0,0.06-0.003,0.128-0.003,0.203v0.838c0,0.447-0.371,0.813-0.82,0.813h-0.293c-0.451,0-0.822-0.365-0.822-0.813v-2.203h3.437
	v-1.293c0-0.944-0.024-1.89-0.103-2.429c-0.246-1.71-2.644-1.98-3.856-1.105c-0.38,0.272-0.671,0.638-0.841,1.131
	c-0.17,0.491-0.254,1.161-0.254,2.016v2.843C20.8,32.695,26.539,32.027,25.855,27.963L25.855,27.963z M18.16,12.528
	c0.102,0.252,0.263,0.454,0.48,0.608c0.215,0.15,0.49,0.227,0.818,0.227c0.289,0,0.545-0.077,0.767-0.238
	c0.222-0.16,0.409-0.398,0.562-0.718l-0.037,0.785h2.229V3.708h-1.756v7.381c0,0.399-0.33,0.728-0.732,0.728
	c-0.399,0-0.73-0.328-0.73-0.728V3.708H17.93v6.396c0,0.815,0.014,1.358,0.038,1.635C17.994,12.013,18.057,12.274,18.16,12.528
	L18.16,12.528z M11.401,7.172c0-0.911,0.076-1.621,0.227-2.134c0.151-0.511,0.425-0.921,0.819-1.23
	c0.395-0.311,0.9-0.467,1.513-0.467c0.516,0,0.958,0.102,1.327,0.3c0.37,0.199,0.658,0.458,0.855,0.778
	c0.203,0.32,0.34,0.65,0.414,0.988c0.074,0.341,0.111,0.857,0.111,1.552v2.399c0,0.88-0.035,1.526-0.104,1.938
	s-0.213,0.793-0.439,1.151c-0.223,0.354-0.51,0.62-0.859,0.789c-0.352,0.172-0.754,0.255-1.21,0.255
	c-0.508,0-0.937-0.071-1.288-0.218c-0.354-0.146-0.627-0.365-0.823-0.658c-0.197-0.292-0.335-0.647-0.418-1.063
	c-0.084-0.415-0.124-1.038-0.124-1.87L11.401,7.172L11.401,7.172z M13.147,10.939c0,0.537,0.4,0.975,0.888,0.975
	c0.486,0,0.884-0.438,0.884-0.975V5.891c0-0.537-0.398-0.976-0.884-0.976c-0.487,0-0.888,0.438-0.888,0.976V10.939z M6.976,13.489
	H9.08l0.002-7.274l2.486-6.232H9.267L7.945,4.613L6.604-0.029H4.327l2.645,6.248L6.976,13.489z M6.976,13.489"/>
</svg>
