<?xml version="1.0" encoding="utf-8"?>
<!-- Generator: Adobe Illustrator 16.0.3, SVG Export Plug-In . SVG Version: 6.00 Build 0)  -->
<!DOCTYPE svg PUBLIC "-//W3C//DTD SVG 1.1//EN" "http://www.w3.org/Graphics/SVG/1.1/DTD/svg11.dtd">
<svg version="1.1" id="Layer_1" xmlns="http://www.w3.org/2000/svg" xmlns:xlink="http://www.w3.org/1999/xlink" x="0px" y="0px"
	 width="65px" height="65px" viewBox="0 0 65 65" enable-background="new 0 0 65 65" xml:space="preserve">
<g>
	<g>
		<g>
			<path fill-rule="evenodd" clip-rule="evenodd" d="M33.524,5.443h-2.156V3.288h2.156V5.443z M52.389,14.121l-1.51-1.508l1.51-1.51
				l1.509,1.51L52.389,14.121z M59.503,33.578v-2.157h2.156v2.157H59.503z M33.524,59.503v2.156h-2.156v-2.156H33.524z
				 M53.844,52.388l-1.51,1.51l-1.509-1.563l1.509-1.51L53.844,52.388z M14.121,12.612l-1.509,1.508l-1.509-1.508l1.509-1.51
				L14.121,12.612z M5.444,33.578H3.288v-2.157h2.156V33.578z M11.103,52.388l1.563-1.563l1.509,1.51l-1.563,1.563L11.103,52.388z"
				/>
		</g>
		<g>
			<path d="M32.501,65c-7.25,0-13.722-2.115-19.243-6.287l-1.174,1.219c-0.984,0.903-2.158,1.35-3.514,1.35
				c-1.329,0-2.454-0.452-3.345-1.344l0,0c-0.931-0.906-1.505-2.175-1.505-3.508c0-1.368,0.491-2.532,1.46-3.461l1.165-1.165
				C2.134,46.28,0,39.788,0,32.5c0-7.36,2.188-13.925,6.504-19.521l-1.333-1.333c-0.963-0.964-1.452-2.144-1.452-3.508
				c0-1.333,0.473-2.461,1.406-3.354l0,0C6.018,3.852,7.237,3.288,8.57,3.288c1.364,0,2.544,0.488,3.507,1.452l1.341,1.34
				C18.903,2.045,25.321,0,32.501,0c7.177,0,13.593,2.079,19.078,6.18l1.392-1.435c0.927-0.966,2.092-1.458,3.461-1.458
				c1.331,0,2.612,0.572,3.506,1.505l0,0c0.892,0.892,1.345,2.018,1.345,3.345c0,1.358-0.468,2.536-1.39,3.499l-1.392,1.349
				C62.813,18.614,65,25.176,65,32.5c0,7.254-2.134,13.728-6.344,19.25l1.228,1.228c0.928,0.927,1.398,2.089,1.398,3.452
				c0,1.328-0.453,2.454-1.345,3.346l-0.161,0.162c-0.893,0.892-2.018,1.344-3.345,1.344c-1.366,0-2.528-0.47-3.454-1.397
				l-1.228-1.228C46.228,62.866,39.754,65,32.501,65z M13.154,57.271l0.382,0.298c5.411,4.216,11.792,6.354,18.965,6.354
				c7.172,0,13.552-2.154,18.962-6.406l0.375-0.295l1.901,1.901c0.728,0.728,1.608,1.081,2.692,1.081
				c1.021,0,1.853-0.321,2.535-0.981c0.254-0.255,0.254-0.255,0.254-0.255c0.661-0.683,0.983-1.514,0.983-2.537
				c0-1.082-0.354-1.962-1.082-2.69l-1.901-1.901l0.295-0.375c4.252-5.41,6.406-11.79,6.406-18.963
				c0-7.243-2.209-13.713-6.566-19.23l-0.302-0.383l2.074-2.009c0.719-0.752,1.076-1.653,1.076-2.74
				c0-1.019-0.319-1.847-0.976-2.529c0,0,0.059,0.059,0,0c-0.7-0.731-1.757-1.244-2.797-1.244c-1.079,0-1.956,0.369-2.684,1.128
				l-2.063,2.125l-0.381-0.293C45.929,3.18,39.602,1.078,32.501,1.078c-7.104,0-13.432,2.066-18.808,6.142l-0.375,0.284
				l-2.003-2.002C10.55,4.737,9.652,4.365,8.57,4.365c-1.042,0-2.009,0.475-2.7,1.198l0,0c-0.722,0.69-1.073,1.533-1.073,2.575
				c0,1.083,0.372,1.981,1.136,2.746l2.01,2.011l-0.299,0.376C3.287,18.752,1.078,25.222,1.078,32.5
				c0,7.208,2.155,13.606,6.406,19.017l0.295,0.375l-1.847,1.848c-0.767,0.735-1.171,1.614-1.136,2.69
				c0.063,1.914,1.193,2.713,1.244,2.799c0.681,0.655,1.509,0.975,2.529,0.975c1.093,0,1.996-0.341,2.762-1.043L13.154,57.271z
				 M32.501,57.4c-6.836,0-12.768-2.465-17.629-7.326c-3.435-3.436-5.678-7.423-6.667-11.853C7.804,36.396,7.6,34.471,7.6,32.5
				c0-6.835,2.447-12.766,7.271-17.626c4.865-4.828,10.795-7.274,17.63-7.274c6.835,0,12.747,2.447,17.574,7.272l0,0
				C54.937,19.732,57.4,25.664,57.4,32.5c0,2.01-0.203,3.953-0.605,5.775c-1.026,4.434-3.287,8.403-6.722,11.802
				C45.251,54.936,39.337,57.4,32.501,57.4z M9.426,38.69c1.016,3.945,3.103,7.516,6.208,10.621
				c4.652,4.652,10.327,7.011,16.867,7.011c6.538,0,12.193-2.357,16.811-7.01c3.133-3.099,5.244-6.686,6.283-10.669
				c-0.896,0.006-1.69,0.241-2.428,0.722c-1.655,1.128-3.461,1.704-5.359,1.704c-1.934,0-3.759-0.576-5.424-1.711
				c-0.735-0.479-1.521-0.715-2.392-0.715c-0.904,0-1.687,0.234-2.391,0.715c-1.547,1.132-3.377,1.711-5.425,1.711
				c-1.896,0-3.72-0.575-5.419-1.707c-0.645-0.482-1.442-0.719-2.396-0.719c-0.827,0-1.638,0.245-2.409,0.727
				c-1.528,1.12-3.358,1.699-5.406,1.699c-1.905,0-3.662-0.579-5.223-1.721C10.749,39.005,10.106,38.781,9.426,38.69z
				 M39.992,37.566c1.071,0,2.077,0.301,2.989,0.896c2.953,2.013,6.591,2.051,9.589,0.006c0.98-0.641,2.074-0.946,3.271-0.896
				c0.318-1.606,0.48-3.311,0.48-5.072c0-6.541-2.357-12.215-7.01-16.866c-4.616-4.615-10.272-6.956-16.812-6.956
				c-6.541,0-12.216,2.341-16.868,6.958C11.019,20.284,8.678,25.959,8.678,32.5c0,1.748,0.167,3.455,0.494,5.082
				c0.973,0.067,1.896,0.359,2.748,0.87c1.413,1.03,2.956,1.54,4.627,1.54c1.814,0,3.43-0.51,4.802-1.513
				c0.978-0.612,1.981-0.912,3.013-0.912c1.192,0,2.208,0.308,3.018,0.915c1.495,0.996,3.117,1.51,4.797,1.51
				c1.814,0,3.431-0.51,4.803-1.513C37.87,37.869,38.88,37.566,39.992,37.566z"/>
		</g>
	</g>
</g>
</svg>
