<?xml version="1.0" encoding="utf-8"?>
<!-- Generator: Adobe Illustrator 16.0.3, SVG Export Plug-In . SVG Version: 6.00 Build 0)  -->
<!DOCTYPE svg PUBLIC "-//W3C//DTD SVG 1.1//EN" "http://www.w3.org/Graphics/SVG/1.1/DTD/svg11.dtd">
<svg version="1.1" id="Layer_1" xmlns="http://www.w3.org/2000/svg" xmlns:xlink="http://www.w3.org/1999/xlink" x="0px" y="0px"
	 width="65px" height="65px" viewBox="0 0 65 65" enable-background="new 0 0 65 65" xml:space="preserve">
<g>
</g>
<g>
	<g>
		<g>
			<path fill-rule="evenodd" clip-rule="evenodd" d="M44.118,11.809l-1.452,1.452l-1.449-1.452l1.449-1.451L44.118,11.809z
				 M47.021,10.566V8.492h2.074v2.074H47.021z M39.349,18.237v-2.073h2.073v2.073H39.349z M42.615,24.147l-1.453-1.504l1.453-1.451
				l1.451,1.503L42.615,24.147z M47.021,25.91v-2.074h2.074v2.074H47.021z M53.501,10.306l1.452,1.503l-1.504,1.503l-1.451-1.503
				L53.501,10.306z M56.768,16.164v2.073h-2.074v-2.073H56.768z M54.953,22.643l-1.452,1.452l-1.452-1.452l1.452-1.451
				L54.953,22.643z"/>
		</g>
		<g>
			<path d="M57.025,64.788c-0.493,0-0.905-0.038-1.254-0.116c-0.025-0.007-0.051-0.015-0.074-0.023L9.678,58.304
				c-2.452-0.324-4.627-1.421-6.464-3.257c-2.131-2.168-3.21-4.854-3.21-7.988c0-2.949,0.951-5.525,2.825-7.652
				c0.092-0.124,0.229-0.282,0.386-0.438L35.09,6.263c0.304-0.336,0.671-0.722,1.093-1.144c3.231-3.266,7.262-4.921,11.979-4.921
				c4.684,0,8.713,1.655,11.978,4.92c3.16,3.16,4.799,7.083,4.87,11.66v40.183c-0.036,2.144-0.82,3.989-2.329,5.497
				C61.134,64.005,59.231,64.788,57.025,64.788z M56.219,63.7c0.229,0.034,0.499,0.051,0.807,0.051c1.948,0,3.558-0.662,4.921-2.025
				c1.331-1.328,1.993-2.892,2.025-4.773v-0.397c-0.055-1.836-0.717-3.363-2.025-4.67c-1.363-1.363-2.973-2.026-4.921-2.026
				c-1.947,0-3.557,0.663-4.922,2.026c-1.362,1.362-2.023,2.973-2.023,4.92c0,1.949,0.661,3.558,2.023,4.921
				c1.022,1.021,2.357,1.671,3.966,1.928C56.121,63.661,56.173,63.679,56.219,63.7z M14.664,57.944l37.449,5.163
				c-0.26-0.199-0.508-0.415-0.74-0.649c-1.545-1.544-2.329-3.446-2.329-5.653c0-2.206,0.784-4.108,2.329-5.652
				c1.546-1.547,3.448-2.331,5.653-2.331c2.206,0,4.108,0.784,5.654,2.331c0.516,0.515,0.947,1.067,1.292,1.66v-29.68
				c-0.811,2.193-2.088,4.181-3.831,5.941c-3.269,3.233-7.297,4.872-11.979,4.872c-4.717,0-8.746-1.639-11.978-4.87
				c-3.266-3.267-4.922-7.297-4.922-11.979c0-2.443,0.451-4.718,1.347-6.803L7.012,36.559c1.383-0.566,2.836-0.853,4.345-0.853
				c3.135,0,5.822,1.099,7.987,3.264c2.232,2.233,3.365,4.954,3.365,8.089c0,3.139-1.135,5.828-3.372,7.994
				C17.984,56.45,16.419,57.419,14.664,57.944z M9.813,57.275c0.563,0.066,1.083,0.1,1.543,0.1c2.847,0,5.286-1.027,7.248-3.056
				c2.039-1.975,3.068-4.414,3.068-7.261c0-2.85-1.031-5.324-3.062-7.356c-1.963-1.963-4.404-2.959-7.254-2.959
				c-2.686,0-5.182,1-7.42,2.971c-0.119,0.119-0.218,0.233-0.304,0.349c-1.729,1.963-2.592,4.307-2.592,6.996
				c0,2.852,0.979,5.294,2.91,7.258C5.618,55.983,7.591,56.981,9.813,57.275z M35.854,6.964c-2.358,2.862-3.555,6.271-3.555,10.133
				c0,4.396,1.554,8.18,4.618,11.245c3.028,3.029,6.813,4.565,11.244,4.565c4.399,0,8.185-1.537,11.247-4.567
				c2.927-2.958,4.463-6.606,4.563-10.835v-0.719c-0.066-4.289-1.603-7.972-4.565-10.935c-3.063-3.063-6.847-4.617-11.245-4.617
				c-4.431,0-8.214,1.553-11.242,4.615c-0.001,0-0.001,0.001-0.002,0.002C36.512,6.257,36.159,6.626,35.854,6.964z M57.545,58.257
				h-1.037V57.53H55.73v-1.036h0.777v-0.726h1.037v0.726h0.673v1.036h-0.673V58.257z M11.356,51.933
				c-1.348,0-2.518-0.488-3.477-1.449c-0.926-0.925-1.396-2.078-1.396-3.425c0-1.342,0.467-2.508,1.388-3.469
				c0.974-0.937,2.141-1.403,3.484-1.403c1.347,0,2.499,0.47,3.425,1.396c0.961,0.962,1.448,2.131,1.448,3.477
				c0,1.348-0.487,2.5-1.448,3.425C13.856,51.444,12.704,51.933,11.356,51.933z M11.356,43.224c-1.082,0-1.981,0.359-2.751,1.099
				c-0.725,0.756-1.084,1.656-1.084,2.736c0,1.078,0.357,1.958,1.092,2.691c0.769,0.771,1.667,1.146,2.744,1.146
				c1.073,0,1.951-0.372,2.685-1.138c0.005-0.006,0.01-0.011,0.015-0.015c0.765-0.733,1.137-1.611,1.137-2.685
				c0-1.076-0.374-1.974-1.144-2.743C13.313,43.581,12.433,43.224,11.356,43.224z M48.058,29.487c-3.409,0-6.341-1.203-8.712-3.574
				c-2.372-2.37-3.573-5.301-3.573-8.713c0-3.444,1.201-6.393,3.573-8.764c2.371-2.371,5.303-3.573,8.712-3.573
				c3.445,0,6.395,1.202,8.765,3.573c2.37,2.372,3.573,5.32,3.573,8.764c0,3.411-1.203,6.342-3.573,8.713
				C54.452,28.284,51.502,29.487,48.058,29.487z M48.058,5.9c-3.126,0-5.81,1.1-7.979,3.27c-2.169,2.169-3.269,4.872-3.269,8.031
				c0,3.126,1.1,5.811,3.269,7.979c2.17,2.17,4.856,3.271,7.979,3.271c3.161,0,5.862-1.101,8.031-3.271
				c2.17-2.169,3.27-4.854,3.27-7.979c0-3.159-1.1-5.86-3.27-8.031C53.92,7,51.22,5.9,48.058,5.9z M48.058,20.933
				c-1.036,0-1.925-0.365-2.646-1.084c-0.721-0.72-1.086-1.611-1.086-2.648c0-1.036,0.365-1.926,1.086-2.647
				c0.721-0.72,1.61-1.084,2.646-1.084s1.927,0.364,2.647,1.083c0.721,0.722,1.084,1.612,1.084,2.648
				c0,1.037-0.363,1.929-1.084,2.648C49.983,20.568,49.094,20.933,48.058,20.933z M48.058,14.505c-0.763,0-1.388,0.255-1.913,0.781
				c-0.527,0.525-0.782,1.152-0.782,1.914c0,0.763,0.255,1.39,0.782,1.915c0.525,0.526,1.151,0.782,1.913,0.782
				c0.761,0,1.389-0.256,1.914-0.782c0.526-0.524,0.781-1.151,0.781-1.914c0-0.762-0.255-1.388-0.781-1.915
				C49.446,14.761,48.819,14.505,48.058,14.505z"/>
		</g>
	</g>
</g>
</svg>
