<?xml version="1.0" encoding="utf-8"?>
<!-- Generator: Adobe Illustrator 16.0.3, SVG Export Plug-In . SVG Version: 6.00 Build 0)  -->
<!DOCTYPE svg PUBLIC "-//W3C//DTD SVG 1.1//EN" "http://www.w3.org/Graphics/SVG/1.1/DTD/svg11.dtd">
<svg version="1.1" id="Layer_1" xmlns="http://www.w3.org/2000/svg" xmlns:xlink="http://www.w3.org/1999/xlink" x="0px" y="0px"
	 width="71px" height="41px" viewBox="0 0 71 41" enable-background="new 0 0 71 41" xml:space="preserve">
<g>
	<path fill-opacity="0.5" d="M70.5,20.5c0,11.046-8.954,20-20,20h-30c-11.046,0-20-8.954-20-20l0,0c0-11.046,8.954-20,20-20h30
		C61.546,0.5,70.5,9.454,70.5,20.5L70.5,20.5z"/>
	<path fill="#FFFFFF" d="M50.5,41h-30C9.196,41,0,31.804,0,20.5S9.196,0,20.5,0h30C61.804,0,71,9.196,71,20.5S61.804,41,50.5,41z
		 M20.5,1C9.748,1,1,9.748,1,20.5S9.748,40,20.5,40h30C61.252,40,70,31.252,70,20.5S61.252,1,50.5,1H20.5z"/>
</g>
<path fill="#FFFFFF" d="M40.852,8.847C41.92,8.809,44.5,8.838,44.5,8.838V3.283c-0.571-0.06-1.169-0.141-1.766-0.169
	c-1.096-0.047-2.191-0.104-3.289-0.08c-1.674,0.038-3.258,0.445-4.64,1.437c-1.588,1.141-2.46,2.745-2.79,4.637
	c-0.138,0.783-0.174,1.589-0.194,2.383c-0.031,1.25-0.005,4.211-0.005,4.211H26.5v6.201h5.285V37.5h6.459V21.929h5.268
	c0.268-2.063,0.533-4.106,0.811-6.235c-0.424,0-6.121,0-6.121,0s0.014-3.072,0.052-4.409C38.303,9.456,39.389,8.899,40.852,8.847"/>
</svg>
