<?xml version="1.0" encoding="utf-8"?>
<!-- Generator: Adobe Illustrator 21.0.0, SVG Export Plug-In . SVG Version: 6.00 Build 0)  -->
<svg version="1.1" id="Слой_1" xmlns="http://www.w3.org/2000/svg" xmlns:xlink="http://www.w3.org/1999/xlink" x="0px" y="0px"
	 viewBox="0 0 60 60" style="enable-background:new 0 0 60 60;" xml:space="preserve">
<style type="text/css">
	.st0{fill:none;stroke:#FFFFFF;stroke-width:2;stroke-miterlimit:10;}
	.st1{fill:none;stroke:#FFFFFF;stroke-width:2;stroke-linecap:round;stroke-linejoin:round;stroke-miterlimit:10;}
</style>
<path class="st0" d="M16.2,16V7.5c0-1,0.8-1.9,1.9-1.9h36c1,0,1.9,0.8,1.9,1.9v24.7c0,1-0.8,1.9-1.9,1.9h-3.9"/>
<path class="st1" d="M23.4,44.5l-9.5,10.3l0-10.1v-0.2H6.1c-1.4,0-2.6-1.1-2.6-2.6V18.5c0-1.4,1.1-2.6,2.6-2.6h34.7
	c1.4,0,2.6,1.1,2.6,2.6v23.4c0,1.4-1.1,2.6-2.6,2.6L23.4,44.5"/>
<polyline class="st1" points="50.3,34.1 50.3,44.8 43.3,37.2 "/>
</svg>
