<?xml version="1.0" encoding="utf-8"?>
<!-- Generator: Adobe Illustrator 21.0.2, SVG Export Plug-In . SVG Version: 6.00 Build 0)  -->
<svg version="1.1" id="Layer_1" xmlns="http://www.w3.org/2000/svg" xmlns:xlink="http://www.w3.org/1999/xlink" x="0px" y="0px"
	 viewBox="0 0 65 65" enable-background="new 0 0 65 65" xml:space="preserve">
<g>
</g>
<g>
	<g>
		<path d="M32.519,64.996c-4.401,0-8.426-1.076-11.963-3.197H7.204l-0.15-0.185c-1.888-2.314-3.412-4.835-4.529-7.493
			c-1.656-3.889-2.496-8.163-2.496-12.701c0-4.35,0.762-8.448,2.265-12.185C3.85,25.364,6.24,21.802,9.4,18.644l0.144-0.201
			c3.077-3.076,6.532-5.438,10.27-7.018c3.847-1.656,8.105-2.496,12.649-2.496c4.6,0,8.874,0.84,12.762,2.497
			c3.734,1.579,7.189,3.94,10.268,7.018c3.233,3.233,5.672,6.864,7.252,10.792l0,0c1.503,3.738,2.264,7.836,2.264,12.185
			c0,4.577-0.842,8.872-2.497,12.762c-1.116,2.616-2.619,5.115-4.468,7.429l-0.149,0.188h-13.41
			C40.946,63.92,36.92,64.996,32.519,64.996z M20.958,60.868c3.407,2.071,7.297,3.124,11.561,3.124
			c4.264,0,8.154-1.053,11.562-3.125c1.561-0.965,3.046-2.152,4.42-3.525c2.151-2.152,3.788-4.521,4.863-7.04l0.925,0.394
			c-1.127,2.637-2.836,5.113-5.079,7.358c-1.015,1.016-2.09,1.935-3.213,2.739h11.414c1.614-2.053,2.951-4.25,3.979-6.547
			l-3.765-1.628l0.397-0.923l3.761,1.627c1.415-3.497,2.161-7.328,2.218-11.399h-8.404v-1.007h8.404
			c-0.053-3.853-0.727-7.497-2.006-10.844l-3.818,1.476l-0.362-0.937l3.805-1.471c-1.472-3.479-3.65-6.714-6.482-9.629l-2.897,2.899
			l-0.711-0.71l2.897-2.898c-2.77-2.692-5.841-4.794-9.144-6.257l-1.681,3.719l-0.915-0.414l1.671-3.697
			c-3.508-1.421-7.335-2.166-11.393-2.216v8.406H31.96V9.937c-4.064,0.063-7.842,0.807-11.286,2.216l1.624,3.701l-0.921,0.404
			l-1.627-3.712c-3.314,1.47-6.393,3.581-9.167,6.282l2.87,2.871l-0.711,0.71L9.9,19.566c-2.833,2.878-5.01,6.096-6.48,9.574
			l3.804,1.471l-0.361,0.937l-3.819-1.476c-1.279,3.347-1.954,6.99-2.008,10.844h8.405v1.007H1.037
			c0.058,4.037,0.803,7.85,2.222,11.346l3.763-1.575l0.388,0.927l-3.759,1.573c1.028,2.331,2.383,4.547,4.033,6.6h11.359
			c-1.123-0.806-2.2-1.725-3.214-2.739c-2.205-2.206-3.913-4.68-5.075-7.354l0.921-0.399c1.111,2.557,2.748,4.927,4.865,7.042
			C17.909,58.714,19.396,59.901,20.958,60.868z M32.463,46.433c-1.353,0-2.511-0.473-3.441-1.403
			c-0.931-0.933-1.404-2.091-1.404-3.441l0-0.187c0.042-1.231,0.514-2.308,1.403-3.195c0.488-0.487,1.023-0.9,1.592-1.225
			l11.669-6.064l0.681,0.673l-5.997,11.825c-0.241,0.563-0.623,1.113-1.122,1.613C34.917,45.961,33.777,46.433,32.463,46.433z
			 M28.623,41.428v0.162c0,1.089,0.363,1.982,1.109,2.729c0.746,0.746,1.639,1.109,2.731,1.109c1.052,0,1.927-0.363,2.671-1.109
			c0.408-0.407,0.719-0.854,0.923-1.329l5.304-10.46l-10.267,5.335c-0.473,0.271-0.937,0.628-1.362,1.052
			C29.021,39.627,28.658,40.448,28.623,41.428z"/>
	</g>
</g>
</svg>
