<?xml version="1.0" encoding="utf-8"?>
<!-- Generator: Adobe Illustrator 16.0.3, SVG Export Plug-In . SVG Version: 6.00 Build 0)  -->
<!DOCTYPE svg PUBLIC "-//W3C//DTD SVG 1.1//EN" "http://www.w3.org/Graphics/SVG/1.1/DTD/svg11.dtd">
<svg version="1.1" id="Layer_1" xmlns="http://www.w3.org/2000/svg" xmlns:xlink="http://www.w3.org/1999/xlink" x="0px" y="0px"
	 width="185.977px" height="222.71px" viewBox="0 0 185.977 222.71" enable-background="new 0 0 185.977 222.71"
	 xml:space="preserve">
<path fill="#FFFFFF" d="M157.379,162.902h-12.23l0.059-7.098c0-3.16,2.59-5.738,5.762-5.738h0.781c3.172,0,5.773,2.578,5.773,5.738
	L157.379,162.902z M111.523,147.688c-3.094,0-5.629,2.086-5.629,4.637v34.527c0,2.551,2.535,4.625,5.629,4.625
	c3.117,0,5.652-2.074,5.652-4.625V152.32C117.176,149.773,114.641,147.688,111.523,147.688L111.523,147.688z M185.977,128.375
	v65.684c0,15.758-13.66,28.648-30.367,28.648H30.754c-16.707,0-30.367-12.895-30.367-28.648v-65.684
	c0-15.757,13.66-28.652,30.367-28.652h124.859C172.316,99.723,185.977,112.621,185.977,128.375L185.977,128.375z M39.078,201.191
	l-0.004-69.188l15.477,0.004v-10.254l-41.258-0.066v10.078l12.879,0.039v69.383h12.906V201.191z M85.477,142.313H72.574v36.941
	c0,5.348,0.32,8.02-0.02,8.961c-1.055,2.863-5.77,5.906-7.605,0.313c-0.313-0.984-0.035-3.941-0.043-9.02l-0.059-37.199H52.016
	l0.047,36.609c0.004,5.613-0.129,9.801,0.043,11.703c0.313,3.359,0.195,7.277,3.32,9.508c5.801,4.188,16.93-0.621,19.711-6.602
	l-0.023,7.629l10.359,0.016v-58.859H85.477z M126.762,184.617l-0.027-30.75c-0.012-11.723-8.773-18.742-20.684-9.262l0.055-22.863
	l-12.895,0.023l-0.063,78.906l10.602-0.156l0.961-4.918C118.266,208.039,126.781,199.52,126.762,184.617L126.762,184.617z
	 M167.152,180.543l-9.68,0.051c0,0.387-0.02,0.828-0.023,1.313v5.398c0,2.891-2.387,5.242-5.289,5.242h-1.895
	c-2.906,0-5.293-2.352-5.293-5.242v-14.207h22.16v-8.34c0-6.09-0.16-12.184-0.664-15.664c-1.582-11.027-17.051-12.773-24.871-7.133
	c-2.453,1.762-4.324,4.121-5.422,7.297c-1.098,3.168-1.641,7.492-1.641,12.996v18.336
	C134.543,211.066,171.563,206.758,167.152,180.543L167.152,180.543z M117.516,80.996c0.66,1.622,1.695,2.93,3.105,3.922
	c1.379,0.969,3.156,1.465,5.277,1.465c1.859,0,3.508-0.504,4.941-1.543c1.434-1.031,2.641-2.57,3.625-4.629l-0.246,5.063h14.383
	V24.102h-11.324v47.609c0,2.575-2.129,4.688-4.723,4.688c-2.578,0-4.715-2.113-4.715-4.688V24.102h-11.813V65.36
	c0,5.258,0.094,8.761,0.25,10.539C116.445,77.664,116.852,79.356,117.516,80.996L117.516,80.996z M73.926,46.446
	c0-5.875,0.492-10.457,1.461-13.762c0.977-3.297,2.742-5.945,5.285-7.938c2.547-2.007,5.805-3.011,9.754-3.011
	c3.328,0,6.18,0.656,8.566,1.933c2.383,1.286,4.238,2.953,5.512,5.016c1.313,2.07,2.191,4.199,2.668,6.375
	c0.484,2.203,0.719,5.535,0.719,10.016v15.472c0,5.676-0.227,9.848-0.668,12.5c-0.434,2.66-1.375,5.121-2.828,7.43
	c-1.438,2.289-3.293,3.996-5.547,5.086c-2.266,1.105-4.863,1.644-7.801,1.644c-3.277,0-6.043-0.453-8.313-1.402
	c-2.281-0.941-4.047-2.359-5.305-4.242c-1.273-1.887-2.164-4.18-2.699-6.856c-0.543-2.679-0.801-6.699-0.801-12.066V46.446H73.926z
	 M85.188,70.746c0,3.461,2.582,6.29,5.723,6.29s5.707-2.825,5.707-6.29V38.18c0-3.461-2.566-6.289-5.707-6.289
	s-5.723,2.824-5.723,6.289V70.746z M45.379,87.192h13.574l0.012-46.918L75,0.079H60.156l-8.523,29.859L42.984,0H28.297
	l17.059,40.301L45.379,87.192z M45.379,87.192"/>
</svg>
