<?xml version="1.0" encoding="utf-8"?>
<!-- Generator: Adobe Illustrator 16.0.3, SVG Export Plug-In . SVG Version: 6.00 Build 0)  -->
<!DOCTYPE svg PUBLIC "-//W3C//DTD SVG 1.1//EN" "http://www.w3.org/Graphics/SVG/1.1/DTD/svg11.dtd">
<svg version="1.1" id="Layer_1" xmlns="http://www.w3.org/2000/svg" xmlns:xlink="http://www.w3.org/1999/xlink" x="0px" y="0px"
	 width="71px" height="41px" viewBox="0 0 71 41" enable-background="new 0 0 71 41" xml:space="preserve">
<g>
	<path fill-opacity="0.5" d="M70.5,20.5c0,11.046-8.954,20-20,20h-30c-11.046,0-20-8.954-20-20l0,0c0-11.046,8.954-20,20-20h30
		C61.546,0.5,70.5,9.454,70.5,20.5L70.5,20.5z"/>
	<path fill="#FFFFFF" d="M50.5,41h-30C9.196,41,0,31.804,0,20.5S9.196,0,20.5,0h30C61.804,0,71,9.196,71,20.5S61.804,41,50.5,41z
		 M20.5,1C9.748,1,1,9.748,1,20.5S9.748,40,20.5,40h30C61.252,40,70,31.252,70,20.5S61.252,1,50.5,1H20.5z"/>
</g>
<path fill="#FFFFFF" d="M45.139,28.228h-1.896l0.01-1.1c0-0.491,0.401-0.891,0.893-0.891h0.122c0.491,0,0.895,0.399,0.895,0.891
	L45.139,28.228z M38.029,25.869c-0.479,0-0.873,0.323-0.873,0.719v5.353c0,0.396,0.394,0.718,0.873,0.718
	c0.483,0,0.877-0.322,0.877-0.718v-5.353C38.906,26.192,38.513,25.869,38.029,25.869L38.029,25.869z M49.572,22.874v10.185
	c0,2.442-2.117,4.441-4.707,4.441H25.507c-2.59,0-4.708-2-4.708-4.441V22.874c0-2.443,2.118-4.441,4.708-4.441h19.358
	C47.455,18.433,49.572,20.432,49.572,22.874L49.572,22.874z M26.798,34.164l-0.001-10.727l2.399,0.001v-1.591l-6.396-0.01V23.4
	l1.997,0.006v10.757L26.798,34.164L26.798,34.164z M33.991,25.036H31.99v5.727c0,0.83,0.051,1.244-0.002,1.39
	c-0.164,0.443-0.895,0.916-1.18,0.049c-0.049-0.153-0.006-0.611-0.006-1.398l-0.01-5.768h-1.99l0.008,5.676
	c0,0.871-0.02,1.52,0.007,1.814c0.048,0.521,0.03,1.128,0.515,1.474c0.899,0.649,2.625-0.096,3.057-1.022l-0.004,1.182l1.605,0.003
	L33.991,25.036L33.991,25.036z M40.393,31.595l-0.004-4.768c-0.002-1.817-1.361-2.906-3.207-1.437l0.008-3.545L35.19,21.85
	l-0.01,12.233l1.644-0.023l0.148-0.763C39.075,35.226,40.395,33.905,40.393,31.595L40.393,31.595z M46.654,30.963l-1.501,0.008
	c0,0.06-0.003,0.128-0.003,0.203v0.838c0,0.447-0.371,0.813-0.82,0.813h-0.293c-0.451,0-0.822-0.365-0.822-0.813v-2.203h3.437
	v-1.293c0-0.944-0.024-1.89-0.103-2.429c-0.246-1.71-2.644-1.98-3.856-1.105c-0.38,0.272-0.671,0.638-0.841,1.131
	c-0.17,0.491-0.254,1.161-0.254,2.016v2.843C41.599,35.695,47.338,35.027,46.654,30.963L46.654,30.963z M38.959,15.528
	c0.102,0.252,0.263,0.454,0.48,0.608c0.215,0.15,0.49,0.227,0.818,0.227c0.289,0,0.545-0.077,0.767-0.238
	c0.222-0.16,0.409-0.398,0.562-0.718l-0.037,0.785h2.229V6.708h-1.756v7.381c0,0.399-0.33,0.728-0.732,0.728
	c-0.399,0-0.73-0.328-0.73-0.728V6.708h-1.831v6.396c0,0.815,0.014,1.358,0.038,1.635C38.793,15.013,38.855,15.274,38.959,15.528
	L38.959,15.528z M32.2,10.172c0-0.911,0.076-1.621,0.227-2.134c0.151-0.511,0.425-0.921,0.819-1.23
	c0.395-0.311,0.9-0.467,1.513-0.467c0.516,0,0.958,0.102,1.327,0.3c0.37,0.199,0.658,0.458,0.855,0.778
	c0.203,0.32,0.34,0.65,0.414,0.988c0.074,0.341,0.111,0.857,0.111,1.552v2.399c0,0.88-0.035,1.526-0.104,1.938
	s-0.213,0.793-0.439,1.151c-0.223,0.354-0.51,0.62-0.859,0.789c-0.352,0.172-0.754,0.255-1.21,0.255
	c-0.508,0-0.937-0.071-1.288-0.218c-0.354-0.146-0.627-0.365-0.822-0.658c-0.197-0.292-0.336-0.647-0.419-1.063
	c-0.084-0.415-0.124-1.038-0.124-1.87L32.2,10.172L32.2,10.172z M33.946,13.939c0,0.537,0.4,0.975,0.888,0.975
	c0.486,0,0.885-0.438,0.885-0.975V8.891c0-0.537-0.398-0.976-0.885-0.976c-0.487,0-0.888,0.438-0.888,0.976V13.939z M27.774,16.489
	h2.104l0.002-7.274l2.486-6.232h-2.302l-1.321,4.631l-1.341-4.643h-2.277l2.645,6.248L27.774,16.489z M27.774,16.489"/>
</svg>
