<?xml version="1.0" encoding="utf-8"?>
<!-- Generator: Adobe Illustrator 21.0.2, SVG Export Plug-In . SVG Version: 6.00 Build 0)  -->
<svg version="1.1" id="Layer_1" xmlns="http://www.w3.org/2000/svg" xmlns:xlink="http://www.w3.org/1999/xlink" x="0px" y="0px"
	 viewBox="0 0 124 60" enable-background="new 0 0 124 60" xml:space="preserve">
<g>
	<g>
		<g>
			<path d="M41.554,47.07c-11.245,0-22.797-1.123-34.637-3.375l-0.19-0.057c-3.081-1.262-5.017-3.673-5.754-7.169l-0.02-0.136
				l-0.956-12.799L0.973,10.6C1.71,7.105,3.646,4.693,6.727,3.432L8.1,3.154c40.753-7.503,78.107-1.605,111.042,17.541l0.194,0.113
				l1.181,1.71h3.479v2.035h-3.479l-1.181,1.71l-0.194,0.113C95.442,40.152,69.451,47.07,41.554,47.07z M8.1,41.849
				c40.339,7.501,77.292,1.74,109.857-17.127l0.116-0.169H96.047v5.391l-0.059,0.167c-0.787,2.231-3.519,4.038-8.352,5.523
				c-18.297,5.883-41.359,7.546-68.531,4.932L18.2,40.479v-4.493h-1.95v-2.035h1.95v-4.583h16.851l3.05-2.937h2.298v-5.794h-2.298
				l-3.05-2.935H18.2v-4.584h-1.95v-2.035h1.95V6.591l0.906-0.087c27.172-2.612,50.234-0.95,68.543,4.936
				c4.82,1.483,7.552,3.289,8.339,5.519l0.059,0.167v5.392h22.026l-0.116-0.168C85.392,3.481,48.435-2.279,8.1,5.222V41.849z
				 M2.942,36.109c0.483,2.226,1.522,3.85,3.158,4.924V6.037c-1.636,1.074-2.675,2.698-3.158,4.924L2.003,23.535L2.942,36.109z
				 M20.2,38.626c26.513,2.463,48.997,0.802,66.847-4.936c4.918-1.512,6.535-3.048,7-4.118v-2.656
				c-1.42,1.128-3.546,2.12-6.41,3.001c-11.594,3.717-25.146,5.76-40.268,6.069l-0.934,0.019l-0.002-0.019H20.2V38.626z
				 M20.2,33.951h26.058l-0.474-5.485h-6.886l-3.05,2.938H20.2V33.951z M47.791,28.466l0.472,5.464
				c14.555-0.368,27.598-2.371,38.785-5.957c4.917-1.512,6.534-3.048,6.999-4.118v-0.692c-0.465-1.069-2.082-2.605-6.988-4.114
				c-11.195-3.588-24.24-5.575-38.795-5.912l-0.472,5.466h11.958v9.863H47.791z M42.399,26.431h15.35v-5.794h-15.35V26.431z
				 M46.435,11.066l0.933,0.017c15.124,0.275,28.676,2.301,40.281,6.021c2.857,0.878,4.979,1.871,6.398,2.997v-2.604
				c-0.465-1.069-2.082-2.605-6.988-4.114C69.197,7.642,46.71,5.982,20.2,8.444v2.639L46.435,11.066z M41.399,18.603h4.384
				l0.474-5.484H20.2v2.549h15.647l3.05,2.936H41.399z M16.25,35.986h-1.7v-2.035h1.7V35.986z M72.298,27.54
				c-1.072,0-2.001-0.396-2.761-1.179c-0.756-0.778-1.139-1.729-1.139-2.826c0-1.098,0.383-2.049,1.139-2.827
				c0.759-0.782,1.688-1.178,2.761-1.178c1.073,0,2.003,0.396,2.762,1.178c0.756,0.778,1.139,1.729,1.139,2.827
				c0,1.097-0.383,2.048-1.139,2.826C74.301,27.144,73.371,27.54,72.298,27.54z M72.298,21.565c-0.533,0-0.958,0.182-1.338,0.573
				c-0.384,0.394-0.562,0.838-0.562,1.397s0.178,1.002,0.562,1.396c0.38,0.391,0.806,0.573,1.338,0.573
				c0.534,0,0.959-0.182,1.339-0.573c0.383-0.395,0.561-0.838,0.561-1.396c0-0.559-0.179-1.002-0.561-1.397
				C73.258,21.748,72.832,21.565,72.298,21.565z M16.25,13.119h-1.7v-2.035h1.7V13.119z"/>
		</g>
		<g>
			<path d="M16.25,41.085c-0.552,0-1-0.455-1-1.018V29.87c0-0.563,0.448-1.018,1-1.018c0.552,0,1,0.455,1,1.018v10.197
				C17.25,40.63,16.802,41.085,16.25,41.085z M16.25,18.218c-0.552,0-1-0.456-1-1.018V7.002c0-0.562,0.448-1.017,1-1.017
				c0.552,0,1,0.456,1,1.017V17.2C17.25,17.762,16.802,18.218,16.25,18.218z"/>
		</g>
	</g>
</g>
<g>
	<ellipse fill-rule="evenodd" clip-rule="evenodd" cx="34.499" cy="55.88" rx="2" ry="2.06"/>
</g>
<g>
	<ellipse fill-rule="evenodd" clip-rule="evenodd" cx="45.499" cy="55.88" rx="2" ry="2.06"/>
</g>
<g>
	<ellipse fill-rule="evenodd" clip-rule="evenodd" cx="56.499" cy="55.88" rx="4" ry="4.121"/>
</g>
<g>
	<ellipse fill-rule="evenodd" clip-rule="evenodd" cx="67.498" cy="55.88" rx="2" ry="2.06"/>
</g>
</svg>
