<?xml version="1.0" encoding="utf-8"?>
<!-- Generator: Adobe Illustrator 21.0.2, SVG Export Plug-In . SVG Version: 6.00 Build 0)  -->
<svg version="1.1" id="Layer_1" xmlns="http://www.w3.org/2000/svg" xmlns:xlink="http://www.w3.org/1999/xlink" x="0px" y="0px"
	 viewBox="0 0 64 64" enable-background="new 0 0 64 64" xml:space="preserve">
<g>
	<path fill="none" d="M36.361,23.529c-0.6-0.543-1.299-0.826-2.094-0.826c-0.906,0-1.578,0.256-2.053,0.783
		c-0.031,0.034-0.064,0.066-0.098,0.097c-0.428,0.374-0.687,0.811-0.793,1.337c-0.009,0.046-0.021,0.092-0.036,0.137
		c-0.026,0.079-0.058,0.222-0.058,0.451v9.928c0,0.775,0.309,1.461,0.943,2.095c0.516,0.57,1.187,0.825,2.094,0.825
		c0.797,0,1.495-0.282,2.134-0.864c0.004-0.004,0.007-0.008,0.011-0.012c-0.016-0.016-0.033-0.032-0.05-0.049
		c-1.067-0.969-1.627-2.282-1.627-3.864c0-1.56,0.547-2.899,1.625-3.979c0.244-0.243,0.52-0.454,0.826-0.629v-3.452
		c0-0.215-0.027-0.434-0.081-0.651C36.991,24.342,36.749,23.918,36.361,23.529z"/>
	<path fill="none" d="M25.974,24.338c-0.841,0-1.477,0.257-2.128,0.858c-0.623,0.567-0.91,1.22-0.91,2.062v5.957v2.219
		c0,0.775,0.309,1.46,0.944,2.095c0.515,0.571,1.187,0.825,2.094,0.825c0.769,0,1.447-0.264,2.07-0.806
		c0.493-0.63,0.733-1.322,0.733-2.114v-8.176c0-0.855-0.234-1.541-0.713-2.095C27.435,24.608,26.751,24.338,25.974,24.338z"/>
	<path fill="none" d="M47.922,3.532c-0.543-0.649-1.218-1.049-2.016-1.164c-0.847-0.111-1.53,0.066-2.138,0.564
		c-0.671,0.489-1.055,1.133-1.23,2.011l-3.015,23.091v0.091c0.226-0.032,0.463-0.049,0.701-0.049h5.169L48.412,5.61
		C48.524,4.816,48.364,4.139,47.922,3.532z"/>
	<path d="M45.364,63.936v-5.152c0.169-0.578,1.242-2.935,2.222-4.967c0.719-0.583,1.257-1.054,1.641-1.437
		c3.082-3.083,4.729-6.843,4.897-11.221v-8.528c0-2.895-1.66-4.555-4.555-4.555H47.75L50.725,5.93
		c0.198-1.396-0.109-2.666-0.961-3.832c-0.965-1.16-2.155-1.847-3.535-2.043c-0.003-0.001-0.006-0.001-0.009-0.002
		c-1.498-0.199-2.82,0.161-3.879,1.031c-1.099,0.798-1.803,1.943-2.106,3.48l-2.258,17.278c-0.002-0.002-0.003-0.003-0.004-0.004
		c-1.075-0.977-2.322-1.472-3.706-1.472c-1.557,0-2.815,0.505-3.74,1.503c-0.459,0.412-0.821,0.88-1.084,1.399
		c-1.02-0.841-2.185-1.266-3.468-1.266c-1.422,0-2.637,0.484-3.706,1.472c-0.143,0.13-0.277,0.265-0.402,0.403l-1.393-12.075
		c-0.194-1.447-0.792-2.63-1.779-3.517c-0.036-0.033-0.075-0.064-0.116-0.092c-1.258-0.87-2.602-1.213-3.974-1.015
		c-1.472,0.197-2.631,0.813-3.466,1.859c-0.869,1.159-1.261,2.482-1.164,3.95l2.457,29.941c0.631,5.429,2.592,10.311,5.833,14.518
		v6.489c0,0.023,0.012,0.042,0.013,0.064h2.31c0.001-0.022,0.013-0.041,0.013-0.064v-6.892c0-0.263-0.089-0.519-0.252-0.725
		c-3.117-3.934-5-8.53-5.592-13.62l-2.452-29.885c-0.059-0.889,0.171-1.666,0.681-2.347c0.43-0.539,1.062-0.857,1.939-0.975
		c0.77-0.111,1.515,0.079,2.261,0.579c0.538,0.507,0.856,1.175,0.97,2.02L20.6,33.282v2.153c0,1.406,0.547,2.667,1.585,3.701
		c0.928,1.032,2.203,1.556,3.789,1.556c1.384,0,2.631-0.496,3.705-1.473c0.043-0.038,0.082-0.08,0.119-0.124
		c0.103-0.126,0.2-0.254,0.291-0.384c0.121,0.146,0.251,0.288,0.389,0.427c0.929,1.032,2.204,1.555,3.788,1.555
		c1.385,0,2.633-0.496,3.745-1.511c0.129-0.128,0.253-0.263,0.371-0.403c0.224,0.086,0.458,0.164,0.705,0.234
		c0.103,0.029,0.21,0.045,0.319,0.045h7.942c0.645,0,1.168-0.523,1.168-1.168s-0.523-1.168-1.168-1.168h-7.773
		c-0.356-0.11-0.665-0.24-0.921-0.387c-0.24-0.183-0.459-0.371-0.683-0.593c-0.615-0.56-0.901-1.25-0.901-2.173
		c0-0.932,0.308-1.693,0.941-2.328c0.182-0.182,0.414-0.319,0.708-0.418c0.021-0.007,0.042-0.015,0.064-0.023
		c0.082-0.032,0.159-0.073,0.229-0.121c0.058-0.036,0.209-0.111,0.561-0.183c0.214-0.054,0.434-0.081,0.65-0.081h9.345
		c1.618,0,2.218,0.601,2.218,2.219l0.001,8.483c-0.146,3.777-1.523,6.922-4.213,9.614c-0.354,0.353-0.91,0.835-1.657,1.432
		c-0.136,0.108-0.245,0.246-0.321,0.402c-2.57,5.304-2.57,5.853-2.57,6.117v5.256c0,0.023,0.012,0.042,0.013,0.064h2.311
		C45.352,63.978,45.364,63.959,45.364,63.936z M28.776,35.435c0,0.792-0.24,1.484-0.733,2.114c-0.623,0.542-1.3,0.806-2.07,0.806
		c-0.908,0-1.579-0.255-2.094-0.825c-0.635-0.635-0.944-1.32-0.944-2.095v-2.219v-5.957c0-0.842,0.287-1.495,0.91-2.062
		c0.651-0.601,1.287-0.858,2.128-0.858c0.777,0,1.462,0.27,2.089,0.825c0.479,0.554,0.713,1.24,0.713,2.095V35.435z M37.186,28.958
		c-0.307,0.176-0.583,0.386-0.826,0.629c-1.078,1.08-1.625,2.419-1.625,3.979c0,1.582,0.56,2.895,1.627,3.864
		c0.016,0.016,0.033,0.032,0.05,0.049c-0.004,0.004-0.007,0.008-0.011,0.012c-0.639,0.582-1.337,0.864-2.134,0.864
		c-0.907,0-1.578-0.256-2.094-0.825c-0.634-0.634-0.943-1.32-0.943-2.095v-9.928c0-0.23,0.031-0.372,0.058-0.451
		c0.015-0.045,0.027-0.091,0.036-0.137c0.106-0.526,0.365-0.963,0.793-1.337c0.034-0.03,0.067-0.063,0.098-0.097
		c0.475-0.527,1.146-0.783,2.053-0.783c0.796,0,1.495,0.283,2.094,0.826c0.388,0.389,0.63,0.813,0.745,1.327
		c0.054,0.216,0.081,0.435,0.081,0.651V28.958z M40.224,28.077c-0.238,0-0.475,0.017-0.701,0.049v-0.091l3.015-23.091
		c0.175-0.877,0.559-1.521,1.23-2.011c0.609-0.498,1.292-0.676,2.138-0.564c0.798,0.115,1.473,0.515,2.016,1.164
		c0.442,0.607,0.602,1.284,0.49,2.078l-3.019,22.466H40.224z"/>
</g>
</svg>
