<?xml version="1.0" encoding="utf-8"?>
<!-- Generator: Adobe Illustrator 21.0.2, SVG Export Plug-In . SVG Version: 6.00 Build 0)  -->
<svg version="1.1" xmlns="http://www.w3.org/2000/svg" xmlns:xlink="http://www.w3.org/1999/xlink" x="0px" y="0px"
	 viewBox="0 0 95 95" enable-background="new 0 0 95 95" xml:space="preserve">
<g id="Layer_1">
	<g>
		<g>
			<path fill="#F6CB02" d="M70.668,95H24.821v-1.97h5.387l0.229-3.216l2.99-49.476H30.14V27.633h5.171v-10.82l-4.245-4.245
				L47.77,1.178l16.654,11.391l-4.245,4.244v10.82h5.171v12.705h-3.282l0.328,4.915l-0.004,0.001l2.901,47.776h5.375V95z
				 M32.182,93.03H63.32l-0.653-10.98l-30.314,8.588L32.182,93.03z M33.1,78.375l-0.613,10.179l30.057-8.516l-0.613-9.809
				L33.1,78.375z M33.841,65.57l-0.619,10.723l28.586-8.075l-0.619-10.397L33.841,65.57z M34.624,53.16l-0.655,10.326l27.099-7.677
				l-0.615-10.002L34.624,53.16z M35.4,40.338l-0.648,10.738l25.573-7.281l-0.23-3.457H35.4z M32.11,38.368H63.38v-8.765H32.11
				V38.368z M52.004,27.633h6.206V17.39H37.281v10.243h6.205v-6.796h8.519V27.633z M45.455,27.633h4.579v-4.826h-4.579V27.633z
				 M36.703,15.42h22.083l2.565-2.566L47.768,3.563l-13.629,9.293L36.703,15.42z M0.988,38.679L0,36.974l28.423-16.482L0,4.01
				l0.988-1.704L32.35,20.493L0.988,38.679z M93.91,38.679L62.549,20.492L93.91,2.306l0.989,1.704L66.476,20.492l28.424,16.483
				L93.91,38.679z"/>
		</g>
	</g>
</g>
<g id="Layer_2">
</g>
</svg>
