<?xml version="1.0" encoding="utf-8"?>
<!-- Generator: Adobe Illustrator 21.0.2, SVG Export Plug-In . SVG Version: 6.00 Build 0)  -->
<svg version="1.1" id="Layer_1" xmlns="http://www.w3.org/2000/svg" xmlns:xlink="http://www.w3.org/1999/xlink" x="0px" y="0px"
	 viewBox="0 0 95 95" style="enable-background:new 0 0 95 95;" xml:space="preserve">
<style type="text/css">
	.st0{fill:#F6CB02;}
</style>
<g transform="matrix( 1, 0, 0, 1, 0,0) ">
	<g>
		<g id="Layer1_0_1_STROKES">
			<path class="st0" d="M42,94.9c-9,0-16.8-3.2-23.2-9.6C11.8,78.4,8.3,70.8,8.2,62.8c0-0.1,0-0.2,0-0.3l1-3.2l0-14.3
				c-0.8-0.8-1.7-1.6-2.5-2.4c-0.2-0.2-0.3-0.5-0.3-0.7v-5.1c-1.2-0.3-3.3-0.9-4.3-1.9c-1.3-1.3-2-3-2-4.9c0-1.9,0.7-3.5,2-4.9
				c0.2-0.2,0.6-0.6,37.4-15.5C41,9,42.8,9,44.3,9.5C81.1,24.4,81.5,24.8,81.7,25c1.3,1.4,2,3,2,4.9c0,1.9-0.7,3.6-2,4.9
				c-1,1-3.1,1.6-4.3,1.9v5.1c0,0.3-0.1,0.5-0.3,0.7c0,0,0,0,0,0c0,0,0,0,0,0c-0.9,0.8-1.7,1.6-2.5,2.4l0,14.3l1,3.2
				c0,0.1,0,0.2,0,0.3c-0.1,8.1-3.7,15.6-10.6,22.5C58.7,91.7,51,94.9,42,94.9z M10.2,62.9c0.2,7.5,3.5,14.5,10,20.9
				c6,6,13.3,9.1,21.8,9.1c8.4,0,15.8-3,21.7-9.1c6.5-6.4,9.8-13.5,10-20.9l-0.2-0.6c-2,3.6-6,8.6-8.6,11.5L64.8,74
				c0,0.1-0.1,0.1-0.2,0.2c-0.8,0.7-1.8,1-2.9,1c-1,0-1.8-0.3-2.6-0.8c0,0,0,0-0.1,0c-0.1-0.1-0.5-0.3-2.3-1.4
				c-4-2.1-9-3.2-14.8-3.2c-5.8,0-10.8,1.1-14.9,3.2c-1.7,1.1-2.1,1.3-2.2,1.4c0,0,0,0-0.1,0c-0.8,0.5-1.6,0.8-2.6,0.8
				c-1.1,0-2.1-0.3-2.9-1c-0.1-0.1-6.3-7-8.9-11.8L10.2,62.9z M60.2,72.8c0.9,0.6,2.2,0.6,3.1-0.1c0,0,0.1-0.1,0.1-0.1
				c5.2-6.1,8.7-11,9.3-13.2l0-12.7c-9.6,8-19.9,12-30.7,11.8c-10.8,0.2-21.1-3.8-30.7-11.8l0,12.7c0.9,3.5,8.2,12.1,9.4,13.3
				c0.4,0.4,1,0.5,1.6,0.5c0.5,0,1-0.1,1.4-0.4l0,0c0.2-0.1,0.7-0.5,2.4-1.5c4.5-2.3,9.8-3.5,15.9-3.5c6.1,0,11.4,1.2,15.8,3.5
				C59.5,72.3,60,72.6,60.2,72.8L60.2,72.8z M10.9,43.8L10.9,43.8c9.6,8.6,20,12.9,31,12.7c11,0.1,21.4-4.1,31-12.7c0,0,0,0,0,0
				c0.2-0.2,0.3-0.3,0.5-0.5c-20.9,2.9-42.1,2.9-63.1,0C10.6,43.4,10.7,43.6,10.9,43.8z M8.4,41c22.2,3.2,44.8,3.2,67,0v-4.2
				L51,33.2c-0.3,2.2-1.1,4.2-2.5,6c-1.7,2.3-3.9,3.5-6.4,3.5c-2.6,0-4.9-1.2-6.6-3.5c-1.2-1.7-2-3.7-2.4-5.9L8.4,36.8V41z
				 M34.9,32.1c0,0.1,0,0.3,0,0.4c0.2,2.1,0.9,3.9,2.1,5.5c1.4,1.8,3,2.7,5,2.7c1.9,0,3.5-0.9,4.8-2.7c1.3-1.6,2-3.4,2.2-5.4
				c0-0.2,0-0.3,0-0.5c0-0.1,0-0.2,0-0.3c-0.2-2.1-0.9-3.9-2.1-5.5c-1.4-1.9-3-2.8-4.9-2.8c-2,0-3.6,0.9-5.1,2.8
				c-1.1,1.6-1.8,3.4-2.1,5.5C34.9,31.9,34.9,32,34.9,32.1z M3.5,26.5c-0.9,1-1.3,2.1-1.3,3.4c0,1.4,0.5,2.5,1.4,3.5
				c0.6,0.6,2.6,1.2,3.9,1.5L33,31.2c0.3-2.3,1.1-4.4,2.4-6.2c1.8-2.4,4-3.6,6.7-3.6c2.6,0,4.7,1.2,6.5,3.6c1.4,1.8,2.2,3.8,2.5,6.1
				l25.4,3.7c1.2-0.2,3.2-0.8,3.9-1.5c0.9-0.9,1.4-2.1,1.4-3.5c0-1.3-0.4-2.4-1.3-3.4c-1.8-0.9-22.8-9.5-36.8-15.1
				c-1-0.4-2.3-0.4-3.3,0C26.3,17,5.3,25.6,3.5,26.5z"/>
		</g>
	</g>
</g>
<g transform="matrix( 0.613372802734375, 0, 0, 0.613372802734375, 13.1,23.85) ">
	<g transform="matrix( 1.6303253173828125, 0, 0, 1.6303253173828125, -21.35,-38.9) ">
		<g id="Layer0_0_1_STROKES">
			<path class="st0" d="M47.6,82.6c-0.5,0-0.9-0.4-0.9-0.9c0-0.5,0.3-0.9,0.8-0.9l31-2.6c0.1,0,0.2,0,0.4-0.3
				c0.6-0.7,1.3-3.2,0.3-11.5c0,0,0,0,0-0.1c0-0.1,0-0.2,0-0.3c0-0.1,0.1-0.2,0.2-0.3c0.1-0.1,0.2-0.2,0.3-0.2
				c0.1,0,0.2-0.1,0.3-0.1c0,0,0,0,0.1,0h13.3c0.1,0,0.2,0,0.3,0c0,0,0,0,0,0l0,0c0.1,0,0.2,0.1,0.3,0.2c0,0,0,0,0,0c0,0,0,0,0,0
				c0.1,0.1,0.2,0.2,0.2,0.3c0,0.1,0.1,0.2,0.1,0.3c0.7,10.4-2.2,15.9-8.5,16.4L47.6,82.6z M69.6,80.8h16c5-0.4,7.3-4.8,6.8-13.6
				H81.1c1,8.5,0.1,10.9-0.7,11.9c-0.4,0.5-1,0.9-1.6,1L69.6,80.8z"/>
		</g>
	</g>
</g>
</svg>
