<?xml version="1.0" encoding="utf-8"?>
<!-- Generator: Adobe Illustrator 21.0.2, SVG Export Plug-In . SVG Version: 6.00 Build 0)  -->
<svg version="1.1" id="Layer_1" xmlns="http://www.w3.org/2000/svg" xmlns:xlink="http://www.w3.org/1999/xlink" x="0px" y="0px"
	 viewBox="0 0 64 64" enable-background="new 0 0 64 64" xml:space="preserve">
<g>
	<path d="M46.246,34.239V4.209c0-1.731-1.409-3.14-3.14-3.14H20.333C19.979,0.432,19.3,0,18.522,0h-4.276
		c-0.779,0-1.457,0.432-1.811,1.069H6.764c-1.731,0-3.14,1.409-3.14,3.14v48.1c0,1.731,1.409,3.14,3.14,3.14h25.004
		C34.156,60.498,39.298,64,45.244,64c8.215,0,14.898-6.683,14.898-14.898C60.142,41.224,53.995,34.756,46.246,34.239z M14.246,2.004
		h4.276c0.037,0,0.067,0.03,0.067,0.067v9.885l-1.649-1.099c-0.168-0.112-0.362-0.168-0.556-0.168s-0.387,0.056-0.556,0.168
		l-1.649,1.099V2.071C14.18,2.034,14.209,2.004,14.246,2.004z M5.628,52.309v-48.1c0-0.626,0.509-1.136,1.136-1.136H7.9v50.372
		H6.764C6.138,53.445,5.628,52.935,5.628,52.309z M9.904,53.445V3.073h2.271v10.756c0,0.37,0.203,0.709,0.529,0.884
		c0.326,0.174,0.721,0.155,1.029-0.05l2.651-1.767l2.651,1.767c0.168,0.112,0.362,0.168,0.556,0.168
		c0.162,0,0.325-0.039,0.473-0.119c0.326-0.174,0.529-0.514,0.529-0.884V3.073h22.514c0.626,0,1.136,0.509,1.136,1.136v30.03
		c-7.749,0.517-13.896,6.985-13.896,14.863c0,1.51,0.227,2.968,0.646,4.342H9.904z M45.244,61.996
		c-7.109,0-12.894-5.784-12.894-12.894s5.784-12.894,12.894-12.894s12.894,5.784,12.894,12.894S52.354,61.996,45.244,61.996z"/>
</g>
<g>
	<path d="M50.061,45.42h-2.438c0.752-1.111,1.078-2.124,1.183-2.511c0.343-1.255-0.25-2.595-1.38-3.115
		c-0.709-0.327-1.518-0.325-2.22,0.005c-0.701,0.329-1.216,0.945-1.415,1.691c-0.019,0.07-0.195,0.701-0.661,1.29
		c-0.552,0.698-1.259,1.038-2.163,1.038c-1.731,0-3.14,1.409-3.14,3.14v6.948c0,1.731,1.409,3.14,3.14,3.14h7.048
		c1.988,0,3.677-1.355,4.109-3.296l1.002-4.508c0.208-0.935-0.017-1.899-0.616-2.646C51.912,45.848,51.019,45.42,50.061,45.42z
		 M51.17,48.806l-1.002,4.508c-0.226,1.016-1.111,1.726-2.152,1.726h-7.048c-0.626,0-1.136-0.509-1.136-1.136v-6.948
		c0-0.626,0.509-1.136,1.136-1.136c3.641,0,4.656-3.426,4.76-3.816c0.046-0.172,0.166-0.315,0.33-0.392
		c0.057-0.027,0.149-0.059,0.263-0.059c0.08,0,0.17,0.016,0.267,0.06c0.246,0.114,0.372,0.45,0.285,0.767
		c-0.254,0.928-0.945,2.276-2.125,3.277c-0.32,0.272-0.437,0.715-0.292,1.109c0.145,0.395,0.52,0.657,0.941,0.657h4.665
		c0.346,0,0.669,0.155,0.886,0.425C51.164,48.119,51.245,48.468,51.17,48.806z"/>
</g>
<g>
	<path d="M12.528,26.995v-5.936h4.117l-0.282,0.896h-2.87v1.443h2.716v0.905h-2.716v2.69H12.528z"/>
	<path d="M18.131,21.059v5.039h2.887l-0.265,0.897h-3.587v-5.936H18.131z"/>
	<path d="M25.869,26.995H21.53v-5.936h4.364l-0.282,0.896h-3.126v1.443h2.844v0.905h-2.844v1.793h3.382V26.995z"/>
	<path d="M31.13,26.995h-4.339v-5.936h4.364l-0.282,0.896h-3.126v1.443h2.844v0.905h-2.844v1.793h3.382V26.995z"/>
	<path d="M34.52,21.956v5.039h-0.965v-5.039h-1.879v-0.896h4.816l-0.281,0.896H34.52z"/>
	<path d="M37.809,25.551c0.04,0.103,0.085,0.192,0.137,0.269c0.051,0.077,0.113,0.141,0.188,0.192
		c0.074,0.051,0.161,0.091,0.261,0.119c0.1,0.029,0.221,0.043,0.363,0.043c0.193,0,0.353-0.026,0.478-0.077
		c0.126-0.051,0.224-0.126,0.295-0.226s0.12-0.221,0.146-0.363c0.025-0.143,0.038-0.305,0.038-0.487
		c0-0.228-0.025-0.417-0.077-0.568c-0.051-0.15-0.119-0.269-0.205-0.354c-0.085-0.085-0.187-0.146-0.303-0.18
		c-0.117-0.034-0.24-0.051-0.371-0.051c-0.205,0-0.382,0.044-0.53,0.132c-0.147,0.088-0.271,0.192-0.367,0.312h-0.854l0.222-3.143
		h3.135v0.905h-2.289l-0.077,1.127c0.114-0.074,0.239-0.135,0.376-0.184s0.296-0.073,0.479-0.073c0.609,0,1.058,0.178,1.345,0.534
		c0.288,0.356,0.432,0.87,0.432,1.542c0,0.632-0.154,1.136-0.461,1.511c-0.308,0.376-0.777,0.564-1.409,0.564
		c-0.428,0-0.792-0.096-1.094-0.286c-0.302-0.191-0.541-0.485-0.717-0.884L37.809,25.551z"/>
</g>
</svg>
