<?xml version="1.0" encoding="utf-8"?>
<!-- Generator: Adobe Illustrator 21.0.2, SVG Export Plug-In . SVG Version: 6.00 Build 0)  -->
<svg version="1.1" id="Layer_1" xmlns="http://www.w3.org/2000/svg" xmlns:xlink="http://www.w3.org/1999/xlink" x="0px" y="0px"
	 viewBox="0 0 64 64" enable-background="new 0 0 64 64" xml:space="preserve">
<path d="M56.585,40.618h-9.62c-0.553,0-1.002,0.449-1.002,1.002c0,0.553,0.449,1.002,1.002,1.002h9.62
	c0.553,0,1.002-0.449,1.002-1.002C57.587,41.067,57.138,40.618,56.585,40.618z"/>
<path d="M46.965,46.898h7.482c0.553,0,1.002-0.449,1.002-1.002c0-0.553-0.449-1.002-1.002-1.002h-7.482
	c-0.553,0-1.002,0.449-1.002,1.002C45.962,46.449,46.411,46.898,46.965,46.898z"/>
<path d="M41.98,40.912l-3.567,3.567l-2.498-2.498c-0.391-0.391-1.026-0.391-1.417,0c-0.391,0.391-0.391,1.026,0,1.417l3.207,3.207
	c0.196,0.196,0.452,0.294,0.709,0.294c0.256,0,0.513-0.098,0.709-0.294l4.276-4.276c0.391-0.391,0.391-1.026,0-1.417
	C43.006,40.52,42.372,40.52,41.98,40.912z"/>
<path d="M56.585,29.929h-9.62c-0.553,0-1.002,0.449-1.002,1.002s0.449,1.002,1.002,1.002h9.62c0.553,0,1.002-0.449,1.002-1.002
	S57.138,29.929,56.585,29.929z"/>
<path d="M46.965,36.209h7.482c0.553,0,1.002-0.449,1.002-1.002c0-0.553-0.449-1.002-1.002-1.002h-7.482
	c-0.553,0-1.002,0.449-1.002,1.002C45.962,35.76,46.411,36.209,46.965,36.209z"/>
<path d="M41.98,30.223l-3.567,3.567l-2.498-2.498c-0.391-0.391-1.026-0.391-1.417,0c-0.391,0.391-0.391,1.026,0,1.417l3.207,3.207
	c0.196,0.196,0.452,0.294,0.709,0.294c0.256,0,0.513-0.098,0.709-0.294l4.276-4.276c0.391-0.391,0.391-1.026,0-1.417
	C43.006,29.831,42.372,29.831,41.98,30.223z"/>
<path d="M56.585,51.307h-9.62c-0.553,0-1.002,0.449-1.002,1.002s0.449,1.002,1.002,1.002h9.62c0.553,0,1.002-0.449,1.002-1.002
	S57.138,51.307,56.585,51.307z"/>
<path d="M54.447,55.582h-7.482c-0.553,0-1.002,0.449-1.002,1.002c0,0.553,0.449,1.002,1.002,1.002h7.482
	c0.553,0,1.002-0.449,1.002-1.002C55.449,56.031,55,55.582,54.447,55.582z"/>
<path d="M41.98,51.6l-3.567,3.567l-2.498-2.498c-0.391-0.391-1.026-0.391-1.417,0c-0.391,0.391-0.391,1.026,0,1.417l3.207,3.207
	c0.196,0.196,0.452,0.294,0.709,0.294c0.256,0,0.513-0.098,0.709-0.294l4.276-4.276c0.391-0.391,0.391-1.026,0-1.417
	C43.006,51.209,42.372,51.209,41.98,51.6z"/>
<path d="M25.226,19.882l9.482-9.482c0.391-0.391,0.391-1.026,0-1.417c-0.391-0.391-1.026-0.391-1.417,0l-9.482,9.482
	c-0.011,0.011-0.021,0.024-0.032,0.036c-0.421-0.21-0.895-0.329-1.397-0.329c-0.501,0-0.974,0.119-1.395,0.328l-5.448-5.448
	c-0.391-0.391-1.026-0.391-1.417,0c-0.391,0.391-0.391,1.026,0,1.417l5.448,5.448c-0.21,0.42-0.328,0.894-0.328,1.395
	c0,1.731,1.409,3.14,3.14,3.14s3.14-1.409,3.14-3.14c0-0.502-0.119-0.976-0.329-1.397C25.203,19.903,25.215,19.893,25.226,19.882z
	 M22.38,22.447c-0.626,0-1.136-0.509-1.136-1.136c0-0.626,0.509-1.136,1.136-1.136c0.626,0,1.136,0.509,1.136,1.136
	C23.516,21.937,23.006,22.447,22.38,22.447z"/>
<path d="M62.638,25.947l-8.551-8.551c-0.188-0.188-0.443-0.294-0.709-0.294H43.274c-0.928-4.625-3.389-8.839-6.991-11.943
	C32.421,1.832,27.484,0,22.38,0C10.629,0,1.069,9.56,1.069,21.311c0,11.751,9.56,21.311,21.311,21.311
	c2.22,0,4.393-0.337,6.48-1.004V60.86c0,1.731,1.409,3.14,3.14,3.14h27.791c1.731,0,3.14-1.409,3.14-3.14V26.656
	C62.931,26.39,62.826,26.135,62.638,25.947z M54.38,20.524l5.13,5.13h-3.994c-0.626,0-1.136-0.509-1.136-1.136V20.524z
	 M22.38,40.618c-10.646,0-19.307-8.661-19.307-19.307S11.734,2.004,22.38,2.004c4.624,0,9.097,1.66,12.595,4.673
	c3.162,2.724,5.352,6.391,6.251,10.425H32c-1.731,0-3.14,1.409-3.14,3.14v19.26C26.786,40.242,24.609,40.618,22.38,40.618z
	 M59.791,61.996H32c-0.626,0-1.136-0.509-1.136-1.136V20.242c0-0.626,0.509-1.136,1.136-1.136h20.376v5.411
	c0,1.731,1.409,3.14,3.14,3.14h5.411V60.86C60.927,61.486,60.417,61.996,59.791,61.996z"/>
<path d="M35.207,25.52h13.896c0.553,0,1.002-0.449,1.002-1.002s-0.449-1.002-1.002-1.002H35.207c-0.553,0-1.002,0.449-1.002,1.002
	S34.653,25.52,35.207,25.52z"/>
</svg>
