<?xml version="1.0" encoding="utf-8"?>
<!-- Generator: Adobe Illustrator 21.0.2, SVG Export Plug-In . SVG Version: 6.00 Build 0)  -->
<svg version="1.1" id="Layer_1" xmlns="http://www.w3.org/2000/svg" xmlns:xlink="http://www.w3.org/1999/xlink" x="0px" y="0px"
	 viewBox="0 0 64 64" enable-background="new 0 0 64 64" xml:space="preserve">
<path d="M60.858,47.084h-2.207v-6.487c0-1.143-0.93-2.073-2.073-2.073H51.16v-5.417c0-1.733-1.41-3.143-3.143-3.143H34.03
	l0.009-7.04c0.53-0.288,1.824-0.791,4.384-0.791c4.198,0,9.295,1.236,9.346,1.248c0.299,0.073,0.616,0.005,0.858-0.185
	c0.242-0.19,0.384-0.481,0.384-0.789V2.28c0-0.462-0.316-0.864-0.764-0.974C48.028,1.252,42.866,0,38.422,0
	c-2.923,0-4.552,0.584-5.391,1.055C32.191,0.584,30.562,0,27.639,0c-4.444,0-9.606,1.252-9.823,1.306
	c-0.449,0.11-0.764,0.512-0.764,0.974v20.125c0,0.308,0.142,0.599,0.384,0.789c0.242,0.19,0.559,0.258,0.858,0.185
	c0.051-0.012,5.141-1.248,9.346-1.248c2.574,0,3.868,0.509,4.393,0.796l-0.009,7.035H18.054c-1.733,0-3.143,1.41-3.143,3.143v5.417
	H4.143C2.41,38.523,1,39.933,1,41.666v14.981c0,1.733,1.41,3.143,3.143,3.143h8.628v2.274h-2.207c-0.554,0-1.003,0.449-1.003,1.003
	s0.449,1.003,1.003,1.003h10.701c0.554,0,1.003-0.449,1.003-1.003s-0.449-1.003-1.003-1.003h-2.207v-2.274h8.628
	c1.733,0,3.143-1.41,3.143-3.143V41.666c0-1.733-1.41-3.143-3.143-3.143H16.918v-5.417c0-0.627,0.51-1.137,1.137-1.137h29.962
	c0.627,0,1.137,0.51,1.137,1.137v5.417h-5.417c-1.143,0-2.073,0.93-2.073,2.073v21.402c0,1.143,0.93,2.073,2.073,2.073h17.121
	c1.143,0,2.073-0.93,2.073-2.073V49.157C62.931,48.014,62.001,47.084,60.858,47.084z M19.058,21.153V3.081
	c1.584-0.343,5.345-1.075,8.581-1.075c3.348,0,4.532,0.862,4.672,0.975c0.188,0.227,0.422,0.359,0.719,0.359
	c0.297,0,0.531-0.132,0.719-0.359c0.14-0.113,1.323-0.975,4.672-0.975c3.232,0,6.996,0.732,8.581,1.075v18.072
	c-1.837-0.384-5.394-1.028-8.581-1.028c-2.923,0-4.552,0.584-5.391,1.055c-0.839-0.471-2.469-1.055-5.391-1.055
	C24.451,20.125,20.894,20.769,19.058,21.153z M17.051,62.065h-2.274v-2.274h2.274V62.065z M27.685,57.785H4.143
	c-0.627,0-1.137-0.51-1.137-1.137v-1.137h25.816v1.137C28.822,57.275,28.312,57.785,27.685,57.785z M28.822,41.666v11.838H3.006
	V41.666c0-0.627,0.51-1.137,1.137-1.137h23.542C28.312,40.529,28.822,41.039,28.822,41.666z M60.925,49.157v8.628H54.37v-8.628
	c0-0.037,0.03-0.067,0.067-0.067h6.421C60.895,49.09,60.925,49.12,60.925,49.157z M54.437,47.084c-1.143,0-2.073,0.93-2.073,2.073
	v8.628H43.67V44.81h12.975v2.274H54.437z M43.736,40.529h12.841c0.037,0,0.067,0.03,0.067,0.067v2.207H43.67v-2.207
	C43.67,40.559,43.7,40.529,43.736,40.529z M43.67,61.998v-2.207h8.694v2.207c0,0.023,0.003,0.045,0.003,0.067h-8.631
	C43.7,62.065,43.67,62.035,43.67,61.998z M60.858,62.065h-6.421c-0.037,0-0.067-0.03-0.067-0.067v-2.207h6.554v2.207
	C60.925,62.035,60.895,62.065,60.858,62.065z"/>
<path d="M35.396,7.66c0.851-0.201,1.869-0.303,3.026-0.303c1.47,0,3.204,0.15,5.154,0.444c0.051,0.008,0.101,0.011,0.151,0.011
	c0.488,0,0.916-0.356,0.991-0.853c0.083-0.548-0.294-1.059-0.842-1.142c-2.049-0.31-3.884-0.467-5.454-0.467
	c-1.312,0-2.485,0.12-3.487,0.357c-0.539,0.127-0.873,0.668-0.746,1.207C34.317,7.453,34.856,7.787,35.396,7.66z"/>
<path d="M35.396,16.22c0.851-0.201,1.869-0.303,3.026-0.303c1.47,0,3.204,0.15,5.154,0.444c0.051,0.008,0.101,0.011,0.151,0.011
	c0.488,0,0.916-0.356,0.991-0.853c0.083-0.548-0.294-1.059-0.842-1.142c-2.049-0.31-3.884-0.467-5.454-0.467
	c-1.312,0-2.485,0.12-3.487,0.357c-0.539,0.127-0.873,0.668-0.746,1.207C34.317,16.014,34.856,16.348,35.396,16.22z"/>
<path d="M35.164,11.967c0.076,0,0.154-0.009,0.231-0.027c0.301-0.071,0.629-0.131,0.973-0.177c0.549-0.074,0.934-0.579,0.861-1.128
	c-0.074-0.549-0.578-0.935-1.128-0.861c-0.409,0.055-0.802,0.127-1.167,0.213c-0.539,0.127-0.873,0.668-0.746,1.207
	C34.298,11.656,34.71,11.967,35.164,11.967z"/>
<path d="M43.876,10.098c-1.16-0.175-2.265-0.303-3.285-0.38c-0.554-0.042-1.034,0.373-1.076,0.925
	c-0.042,0.552,0.373,1.034,0.925,1.076c0.97,0.073,2.024,0.195,3.135,0.363c0.051,0.008,0.101,0.011,0.151,0.011
	c0.488,0,0.916-0.356,0.991-0.853C44.801,10.692,44.424,10.18,43.876,10.098z"/>
<path d="M31.116,5.707C30.114,5.47,28.941,5.35,27.629,5.35c-1.57,0-3.405,0.157-5.454,0.467C21.627,5.9,21.25,6.411,21.333,6.959
	c0.075,0.497,0.503,0.853,0.991,0.853c0.05,0,0.1-0.004,0.151-0.011c1.95-0.295,3.685-0.444,5.154-0.444
	c1.157,0,2.175,0.102,3.026,0.303c0.539,0.127,1.08-0.207,1.207-0.746C31.989,6.375,31.655,5.834,31.116,5.707z"/>
<path d="M31.116,14.268c-1.002-0.237-2.175-0.357-3.487-0.357c-1.57,0-3.405,0.157-5.454,0.467
	c-0.548,0.083-0.925,0.594-0.842,1.142c0.075,0.497,0.503,0.853,0.991,0.853c0.05,0,0.1-0.004,0.151-0.011
	c1.95-0.295,3.684-0.444,5.154-0.444c1.157,0,2.175,0.102,3.026,0.303c0.539,0.127,1.08-0.207,1.207-0.746
	C31.989,14.936,31.655,14.395,31.116,14.268z"/>
<path d="M30.655,11.94c0.078,0.018,0.155,0.027,0.232,0.027c0.455,0,0.866-0.311,0.975-0.773c0.127-0.539-0.206-1.08-0.746-1.207
	c-0.365-0.086-0.758-0.158-1.167-0.213c-0.549-0.074-1.054,0.312-1.128,0.861c-0.074,0.549,0.312,1.054,0.861,1.128
	C30.026,11.809,30.353,11.869,30.655,11.94z"/>
<path d="M22.323,12.093c0.05,0,0.1-0.004,0.151-0.011c1.111-0.168,2.166-0.29,3.135-0.363c0.552-0.042,0.967-0.523,0.925-1.076
	c-0.041-0.552-0.523-0.966-1.076-0.925c-1.019,0.077-2.125,0.205-3.285,0.38c-0.548,0.083-0.925,0.594-0.842,1.142
	C21.408,11.737,21.835,12.093,22.323,12.093z"/>
</svg>
