<?xml version="1.0" encoding="utf-8"?>
<!-- Generator: Adobe Illustrator 21.0.2, SVG Export Plug-In . SVG Version: 6.00 Build 0)  -->
<svg version="1.1" id="Layer_1" xmlns="http://www.w3.org/2000/svg" xmlns:xlink="http://www.w3.org/1999/xlink" x="0px" y="0px"
	 viewBox="0 0 64 64" enable-background="new 0 0 64 64" xml:space="preserve">
<g transform="matrix( 1, 0, 0, 1, 0,0) ">
	<g>
		<g id="Layer0_0_FILL">
			<path fill="#F6CB02" d="M49.1,11.55V11.5c0-2.433-3.283-3.8-9.85-4.1c-0.167-1.8-0.767-3.367-1.8-4.7
				c-1.267-1.667-2.833-2.483-4.7-2.45c-1.867-0.033-3.433,0.783-4.7,2.45c-1.033,1.333-1.617,2.9-1.75,4.7
				c-6.6,0.3-9.9,1.667-9.9,4.1v0.05c-0.767,11.633-1.633,19.883-2.6,24.75v0.05c-0.333,1.833-0.883,3.25-1.65,4.25H12.1
				c-1.267,1.633-3.333,3.833-6.2,6.6l-0.8,0.7c-1.3,1.267-2.017,3.067-2.15,5.4v1.95l0.8,0.15c6.567,1.4,14.617,2.2,24.15,2.4v1.25
				c0.033,1.267,0.517,2.367,1.45,3.3c0.967,0.967,2.1,1.45,3.4,1.45c1.3,0,2.433-0.483,3.4-1.45c0.933-0.933,1.417-2.033,1.45-3.3
				V57.8c9.533-0.2,17.583-1,24.15-2.4l0.8-0.15V53.3c-0.133-2.333-0.85-4.133-2.15-5.4l-0.75-0.7c-2.9-2.767-4.983-4.967-6.25-6.6
				c-0.8-1-1.35-2.417-1.65-4.25V36.3C50.75,31.433,49.867,23.183,49.1,11.55 M35.85,3.95V3.9c0.733,1,1.183,2.15,1.35,3.45
				c-2.967-0.1-5.933-0.1-8.9,0c0.133-1.3,0.583-2.45,1.35-3.45v0.05c0.867-1.1,1.9-1.667,3.1-1.7
				C33.95,2.283,34.983,2.85,35.85,3.95 M47.1,11.6v0.05c0.767,11.767,1.667,20.117,2.7,25.05c0.4,2.2,1.067,3.9,2,5.1l0.05,0.05
				c1.1,1.433,2.8,3.267,5.1,5.5c-6.767,1.033-14.833,1.55-24.2,1.55c-9.367,0-17.417-0.517-24.15-1.55
				c2.267-2.233,3.967-4.067,5.1-5.5V41.8c0.933-1.2,1.617-2.9,2.05-5.1c1-4.933,1.883-13.283,2.65-25.05V11.6
				c0.167-1.333,3.1-2.083,8.8-2.25c0.033,0,0.067,0,0.1,0c3.633-0.1,7.267-0.1,10.9,0h0.05C43.983,9.517,46.933,10.267,47.1,11.6
				 M32.75,61.8c-0.767,0-1.433-0.283-2-0.85c-0.533-0.533-0.817-1.183-0.85-1.95v-1.2h5.7V59c-0.033,0.767-0.317,1.417-0.85,1.95
				C34.183,61.517,33.517,61.8,32.75,61.8 M58.75,49.05l0.3,0.3c0.933,0.967,1.433,2.317,1.5,4.05v0.2
				c-6.533,1.3-14.5,2.033-23.9,2.2H28.9c-9.433-0.167-17.417-0.9-23.95-2.2v-0.2c0.067-1.733,0.567-3.083,1.5-4.05l0.35-0.3
				c7.1,1.233,15.75,1.85,25.95,1.85C42.95,50.9,51.617,50.283,58.75,49.05z"/>
		</g>
	</g>
</g>
</svg>
