<?xml version="1.0" encoding="utf-8"?>
<!-- Generator: Adobe Illustrator 21.0.2, SVG Export Plug-In . SVG Version: 6.00 Build 0)  -->
<svg version="1.1" id="Layer_1" xmlns="http://www.w3.org/2000/svg" xmlns:xlink="http://www.w3.org/1999/xlink" x="0px" y="0px"
	 viewBox="0 0 64 64" enable-background="new 0 0 64 64" xml:space="preserve">
<g transform="matrix( 1, 0, 0, 1, 0,0) ">
	<g>
		<g id="Layer0_0_FILL">
			<path fill="#F6CB02" d="M59.4,3.25C59.4,1.083,58.35,0,56.25,0H52.3c-2.1,0-3.15,1.083-3.15,3.25V51.5l4.1,6.9v3.45l2.05-1.25
				v-2.2l4.1-6.8V3.25 M56.25,2.05c0.733,0,1.1,0.4,1.1,1.2v4.1H51.2v-4.1c0-0.8,0.367-1.2,1.1-1.2H56.25 M51.2,11.2V9.35h6.15v1.85
				H51.2 M51.2,13.25h6.15v37.1H51.2V13.25 M56.6,52.4l-2.35,3.75L52,52.4H56.6 M39.4,0.3H0.05v55.35h2.7V64l4.8-3.25l5.1,3.2v-8.3
				H39.4c2.867,0,4.3-1.433,4.3-4.3V4.6C43.7,1.733,42.267,0.3,39.4,0.3 M41.65,4.6v13.05H37.9V2.3h1.5
				C40.9,2.3,41.65,3.067,41.65,4.6 M41.65,19.7v16.5H37.9V19.7H41.65 M30.65,2.3v15.35H2.1V2.3H30.65 M32.7,2.3h3.15v51.3H32.7V2.3
				 M2.1,36.2V19.7h28.55v16.5H2.1 M2.1,38.25h28.55V53.6H2.1V38.25 M39.4,53.6h-1.5V38.25h3.75v13.1
				C41.65,52.85,40.9,53.6,39.4,53.6 M10.6,55.65v4.55l-3.05-1.95l-2.75,1.9v-4.5H10.6z"/>
		</g>
	</g>
</g>
</svg>
